<?xml version="1.0" encoding="UTF-8" standalone="no"?>
<!-- Created with Inkscape (http://www.inkscape.org/) -->

<svg
   xmlns:dc="http://purl.org/dc/elements/1.1/"
   xmlns:cc="http://creativecommons.org/ns#"
   xmlns:rdf="http://www.w3.org/1999/02/22-rdf-syntax-ns#"
   xmlns:svg="http://www.w3.org/2000/svg"
   xmlns="http://www.w3.org/2000/svg"
   xmlns:sodipodi="http://sodipodi.sourceforge.net/DTD/sodipodi-0.dtd"
   xmlns:inkscape="http://www.inkscape.org/namespaces/inkscape"
   id="svg3004"
   version="1.1"
   inkscape:version="0.48.5 r10040"
   width="303.76139"
   height="63.584624"
   xml:space="preserve"
   sodipodi:docname="LogoFacu.pdf"><metadata
     id="metadata3010"><rdf:RDF><cc:Work
         rdf:about=""><dc:format>image/svg+xml</dc:format><dc:type
           rdf:resource="http://purl.org/dc/dcmitype/StillImage" /><dc:title></dc:title></cc:Work></rdf:RDF></metadata><defs
     id="defs3008"><clipPath
       clipPathUnits="userSpaceOnUse"
       id="clipPath3020"><path
         d="m 179,50.868 18,0 0,-23 -18,0 0,23 z"
         id="path3022" /></clipPath><clipPath
       clipPathUnits="userSpaceOnUse"
       id="clipPath3026"><path
         d="m 189.676,50.84 c 0,0 -3.563,0.164 -6.41,-4.328 l -1.864,-3.258 c 0,0 -2.714,-4.414 -1.207,-7.703 l 4.184,-7.226 c -0.25,0.461 -1.231,2.562 -0.266,5.886 0,0 0.93,4.028 5.946,11.59 1.906,2.879 5.039,5.039 6.683,5.067 l -7.066,-0.028 z m -5.238,-22.613 -0.059,0.098 c 0.035,-0.063 0.059,-0.098 0.059,-0.098"
         id="path3028" /></clipPath><clipPath
       clipPathUnits="userSpaceOnUse"
       id="clipPath3034"><path
         d="m 179,28 18,0 0,23 -18,0 0,-23 z"
         id="path3036" /></clipPath><linearGradient
       x1="0"
       y1="0"
       x2="1"
       y2="0"
       gradientUnits="userSpaceOnUse"
       gradientTransform="matrix(19.042801,10.9944,-10.9944,19.042801,180.3135,35.47284)"
       spreadMethod="pad"
       id="linearGradient3042"><stop
         style="stop-opacity:1;stop-color:#1478c7"
         offset="0"
         id="stop3044" /><stop
         style="stop-opacity:1;stop-color:#ffffff"
         offset="1"
         id="stop3046" /></linearGradient><clipPath
       clipPathUnits="userSpaceOnUse"
       id="clipPath3066"><path
         d="m 193,50.868 15,0 0,-23 -15,0 0,23 z"
         id="path3068" /></clipPath><clipPath
       clipPathUnits="userSpaceOnUse"
       id="clipPath3072"><path
         d="m 193.746,48.758 c 2.422,-2.027 5.738,-5.425 8.777,-12.851 1.926,-4.696 0.289,-7.547 0.289,-7.547 2.262,3.879 4.559,7.519 4.645,8.426 0.273,2.875 -1.891,7.043 -3.703,9.855 -1.816,2.817 -3.613,3.844 -4.215,4.035 -0.375,0.09 -0.746,0.129 -1.105,0.129 -2.59,0 -4.688,-2.047 -4.688,-2.047"
         id="path3074" /></clipPath><clipPath
       clipPathUnits="userSpaceOnUse"
       id="clipPath3080"><path
         d="m 193,28 15,0 0,23 -15,0 0,-23 z"
         id="path3082" /></clipPath><linearGradient
       x1="0"
       y1="0"
       x2="1"
       y2="0"
       gradientUnits="userSpaceOnUse"
       gradientTransform="matrix(15.683258,-9.054733,9.054733,15.683258,191.50881,45.04901)"
       spreadMethod="pad"
       id="linearGradient3088"><stop
         style="stop-opacity:1;stop-color:#1a7ac8"
         offset="0"
         id="stop3090" /><stop
         style="stop-opacity:1;stop-color:#f7f9fd"
         offset="1"
         id="stop3092" /></linearGradient><clipPath
       clipPathUnits="userSpaceOnUse"
       id="clipPath3112"><path
         d="m 184,33.868 19,0 0,-9 -19,0 0,9 z"
         id="path3114" /></clipPath><clipPath
       clipPathUnits="userSpaceOnUse"
       id="clipPath3118"><path
         d="m 193.43,31.852 c -6.52,0 -9.028,1.055 -9.028,1.055 -0.394,-1.602 0.067,-3.438 0.067,-3.438 1.043,-3.918 5.261,-3.64 5.261,-3.64 0,0 5.243,0.004 7.59,0.023 2.348,0.024 3.59,0.688 4.875,2.524 1.289,1.835 0.516,5.066 0.516,5.066 0,0 -3.664,-1.59 -9.281,-1.59"
         id="path3120" /></clipPath><clipPath
       clipPathUnits="userSpaceOnUse"
       id="clipPath3126"><path
         d="m 184,25 19,0 0,9 -19,0 0,-9 z"
         id="path3128" /></clipPath><linearGradient
       x1="0"
       y1="0"
       x2="1"
       y2="0"
       gradientUnits="userSpaceOnUse"
       gradientTransform="matrix(18.706085,0,0,18.706085,184.22951,29.6242)"
       spreadMethod="pad"
       id="linearGradient3134"><stop
         style="stop-opacity:1;stop-color:#0e88d3"
         offset="0"
         id="stop3136" /><stop
         style="stop-opacity:1;stop-color:#f7f9fd"
         offset="0.48877"
         id="stop3138" /><stop
         style="stop-opacity:1;stop-color:#0e88d3"
         offset="1"
         id="stop3140" /></linearGradient><clipPath
       clipPathUnits="userSpaceOnUse"
       id="clipPath3162"><path
         d="M 0,0 244,0 244,51 0,51 0,0 z"
         id="path3164" /></clipPath></defs><sodipodi:namedview
     pagecolor="#ffffff"
     bordercolor="#666666"
     borderopacity="1"
     objecttolerance="10"
     gridtolerance="10"
     guidetolerance="10"
     inkscape:pageopacity="0"
     inkscape:pageshadow="2"
     inkscape:window-width="1280"
     inkscape:window-height="1004"
     id="namedview3006"
     showgrid="false"
     inkscape:zoom="3.1472347"
     inkscape:cx="168.72674"
     inkscape:cy="-22.452368"
     inkscape:window-x="1918"
     inkscape:window-y="-3"
     inkscape:window-maximized="1"
     inkscape:current-layer="g3012" /><g
     id="g3012"
     inkscape:groupmode="layer"
     inkscape:label="LogoFacu"
     transform="matrix(1.25,0,0,-1.25,0,63.584624)"><g
       id="g3014" /><g
       id="g3016"><g
         id="g3018"
         clip-path="url(#clipPath3020)"><g
           id="g3024"
           clip-path="url(#clipPath3026)"><g
             id="g3030"
             transform="translate(0,-0.132301)"><g
               id="g3032" /><g
               id="g3048"><g
                 clip-path="url(#clipPath3034)"
                 id="g3050"><g
                   id="g3052"><g
                     id="g3054"><g
                       id="g3056"><g
                         id="g3058"><path
                           d="m 189.676,50.973 c 0,0 -3.563,0.164 -6.41,-4.328 l -1.864,-3.258 c 0,0 -2.714,-4.414 -1.207,-7.703 l 4.184,-7.227 c -0.25,0.461 -1.231,2.563 -0.266,5.887 0,0 0.93,4.027 5.946,11.59 1.906,2.878 5.039,5.039 6.683,5.066 l -7.066,-0.027 z m -5.238,-22.614 -0.059,0.098 c 0.035,-0.062 0.059,-0.098 0.059,-0.098"
                           style="fill:url(#linearGradient3042);stroke:none"
                           id="path3060" /></g></g></g></g></g></g></g></g></g></g><g
       id="g3062"><g
         id="g3064"
         clip-path="url(#clipPath3066)"><g
           id="g3070"
           clip-path="url(#clipPath3072)"><g
             id="g3076"
             transform="translate(0,-0.132301)"><g
               id="g3078" /><g
               id="g3094"><g
                 clip-path="url(#clipPath3080)"
                 id="g3096"><g
                   id="g3098"><g
                     id="g3100"><g
                       id="g3102"><g
                         id="g3104"><path
                           d="m 193.746,48.891 c 2.422,-2.028 5.738,-5.426 8.777,-12.852 1.926,-4.695 0.289,-7.547 0.289,-7.547 2.262,3.879 4.559,7.52 4.645,8.426 0.273,2.875 -1.891,7.043 -3.703,9.855 -1.816,2.817 -3.613,3.844 -4.215,4.036 -0.375,0.089 -0.746,0.129 -1.105,0.129 -2.59,0 -4.688,-2.047 -4.688,-2.047"
                           style="fill:url(#linearGradient3088);stroke:none"
                           id="path3106" /></g></g></g></g></g></g></g></g></g></g><g
       id="g3108"><g
         id="g3110"
         clip-path="url(#clipPath3112)"><g
           id="g3116"
           clip-path="url(#clipPath3118)"><g
             id="g3122"
             transform="translate(0,-0.132301)"><g
               id="g3124" /><g
               id="g3142"><g
                 clip-path="url(#clipPath3126)"
                 id="g3144"><g
                   id="g3146"><g
                     id="g3148"><g
                       id="g3150"><g
                         id="g3152"><path
                           d="m 193.43,31.984 c -6.52,0 -9.028,1.055 -9.028,1.055 -0.394,-1.601 0.067,-3.437 0.067,-3.437 1.043,-3.918 5.261,-3.641 5.261,-3.641 0,0 5.243,0.004 7.59,0.023 2.348,0.024 3.59,0.688 4.875,2.524 1.289,1.836 0.516,5.066 0.516,5.066 0,0 -3.664,-1.59 -9.281,-1.59"
                           style="fill:url(#linearGradient3134);stroke:none"
                           id="path3154" /></g></g></g></g></g></g></g></g></g></g><g
       id="g3156"><g
         id="g3158"
         transform="translate(0,-0.132301)"><g
           id="g3160" /><g
           id="g3166"><g
             clip-path="url(#clipPath3162)"
             id="g3168"><g
               id="g3170"><path
                 d="m 179.672,22.262 4.066,0 0,-0.817 -3.082,0 0,-2.507 2.844,0 0,-0.809 -2.844,0 0,-3.414 -0.984,0 0,7.547 z"
                 style="fill:#231f20;fill-opacity:1;fill-rule:nonzero;stroke:none"
                 id="path3172" /><path
                 d="m 188.844,17.852 -0.75,2.171 c -0.168,0.493 -0.278,0.938 -0.391,1.379 l -0.023,0 c -0.11,-0.441 -0.223,-0.91 -0.379,-1.367 l -0.739,-2.183 2.282,0 z m -2.485,-0.766 -0.785,-2.371 -1.008,0 2.579,7.547 1.164,0 2.574,-7.547 -1.043,0 -0.805,2.371 -2.676,0 z"
                 style="fill:#231f20;fill-opacity:1;fill-rule:nonzero;stroke:none"
                 id="path3174" /><path
                 d="m 197.098,14.949 c -0.348,-0.179 -1.075,-0.359 -1.993,-0.359 -2.128,0 -3.718,1.344 -3.718,3.832 0,2.375 1.601,3.965 3.941,3.965 0.93,0 1.535,-0.203 1.793,-0.336 l -0.246,-0.797 c -0.355,0.18 -0.883,0.316 -1.512,0.316 -1.769,0 -2.945,-1.132 -2.945,-3.117 0,-1.859 1.066,-3.035 2.891,-3.035 0.601,0 1.211,0.125 1.601,0.312 l 0.188,-0.781 z"
                 style="fill:#231f20;fill-opacity:1;fill-rule:nonzero;stroke:none"
                 id="path3176" /><path
                 d="m 199.305,22.262 0,-4.481 c 0,-1.679 0.754,-2.394 1.761,-2.394 1.106,0 1.836,0.738 1.836,2.394 l 0,4.481 0.985,0 0,-4.41 c 0,-2.321 -1.223,-3.262 -2.856,-3.262 -1.547,0 -2.711,0.875 -2.711,3.226 l 0,4.446 0.985,0 z"
                 style="fill:#231f20;fill-opacity:1;fill-rule:nonzero;stroke:none"
                 id="path3178" /><path
                 d="m 205.566,22.262 0.985,0 0,-6.731 3.226,0 0,-0.816 -4.211,0 0,7.547 z"
                 style="fill:#231f20;fill-opacity:1;fill-rule:nonzero;stroke:none"
                 id="path3180" /><path
                 d="m 211.324,21.434 -2.297,0 0,0.828 5.59,0 0,-0.828 -2.308,0 0,-6.719 -0.985,0 0,6.719 z"
                 style="fill:#231f20;fill-opacity:1;fill-rule:nonzero;stroke:none"
                 id="path3182" /><path
                 d="m 218.324,17.852 -0.75,2.171 c -0.168,0.493 -0.281,0.938 -0.394,1.379 l -0.02,0 c -0.113,-0.441 -0.226,-0.91 -0.383,-1.367 l -0.738,-2.183 2.285,0 z m -2.484,-0.766 -0.785,-2.371 -1.008,0 2.574,7.547 1.164,0 2.578,-7.547 -1.043,0 -0.804,2.371 -2.676,0 z"
                 style="fill:#231f20;fill-opacity:1;fill-rule:nonzero;stroke:none"
                 id="path3184" /><path
                 d="m 222.445,15.477 c 0.246,-0.036 0.606,-0.047 0.985,-0.047 2.093,0 3.215,1.168 3.215,3.203 0.011,1.781 -0.997,2.914 -3.055,2.914 -0.504,0 -0.887,-0.047 -1.145,-0.102 l 0,-5.968 z m -0.976,6.675 c 0.593,0.098 1.301,0.168 2.074,0.168 1.398,0 2.398,-0.336 3.059,-0.941 0.683,-0.617 1.074,-1.492 1.074,-2.711 0,-1.23 -0.391,-2.242 -1.086,-2.934 -0.715,-0.707 -1.883,-1.086 -3.348,-1.086 -0.707,0 -1.277,0.032 -1.773,0.09 l 0,7.414 z"
                 style="fill:#231f20;fill-opacity:1;fill-rule:nonzero;stroke:none"
                 id="path3186" /><path
                 d="m 232.281,15.477 c 0.242,-0.036 0.602,-0.047 0.985,-0.047 2.093,0 3.214,1.168 3.214,3.203 0.012,1.781 -1,2.914 -3.058,2.914 -0.504,0 -0.883,-0.047 -1.141,-0.102 l 0,-5.968 z m -0.976,6.675 c 0.593,0.098 1.3,0.168 2.074,0.168 1.398,0 2.394,-0.336 3.055,-0.941 0.683,-0.617 1.074,-1.492 1.074,-2.711 0,-1.23 -0.391,-2.242 -1.086,-2.934 -0.715,-0.707 -1.879,-1.086 -3.348,-1.086 -0.703,0 -1.277,0.032 -1.769,0.09 l 0,7.414 z"
                 style="fill:#231f20;fill-opacity:1;fill-rule:nonzero;stroke:none"
                 id="path3188" /><path
                 d="m 242.66,18.254 -2.922,0 0,-2.723 3.27,0 0,-0.816 -4.254,0 0,7.547 4.086,0 0,-0.817 -3.102,0 0,-2.386 2.922,0 0,-0.805 z"
                 style="fill:#231f20;fill-opacity:1;fill-rule:nonzero;stroke:none"
                 id="path3190" /><path
                 d="m 179.672,10.984 0.988,0 0,-7.551 -0.988,0 0,7.551 z"
                 style="fill:#231f20;fill-opacity:1;fill-rule:nonzero;stroke:none"
                 id="path3192" /><path
                 d="m 182.359,3.434 0,7.55 1.075,0 2.41,-3.82 c 0.547,-0.883 0.996,-1.68 1.344,-2.453 l 0.031,0.012 c -0.086,1.007 -0.11,1.925 -0.11,3.101 l 0,3.16 0.918,0 0,-7.55 -0.984,0 -2.398,3.832 c -0.528,0.839 -1.032,1.703 -1.399,2.519 l -0.035,-0.012 c 0.055,-0.953 0.066,-1.859 0.066,-3.113 l 0,-3.226 -0.918,0 z"
                 style="fill:#231f20;fill-opacity:1;fill-rule:nonzero;stroke:none"
                 id="path3194" /><path
                 d="m 195.488,3.77 c -0.437,-0.168 -1.312,-0.415 -2.332,-0.415 -1.14,0 -2.082,0.293 -2.82,0.997 -0.652,0.628 -1.055,1.636 -1.055,2.812 0,2.25 1.559,3.898 4.09,3.898 0.871,0 1.567,-0.191 1.891,-0.347 l -0.246,-0.797 c -0.403,0.191 -0.907,0.328 -1.668,0.328 -1.836,0 -3.036,-1.144 -3.036,-3.039 0,-1.914 1.141,-3.043 2.911,-3.043 0.64,0 1.074,0.086 1.3,0.199 l 0,2.254 -1.523,0 0,0.781 2.488,0 0,-3.628 z"
                 style="fill:#231f20;fill-opacity:1;fill-rule:nonzero;stroke:none"
                 id="path3196" /><path
                 d="m 200.863,6.973 -2.925,0 0,-2.723 3.273,0 0,-0.816 -4.258,0 0,7.55 4.09,0 0,-0.82 -3.105,0 0,-2.383 2.925,0 0,-0.808 z"
                 style="fill:#231f20;fill-opacity:1;fill-rule:nonzero;stroke:none"
                 id="path3198" /><path
                 d="m 202.477,3.434 0,7.55 1.074,0 2.406,-3.82 c 0.551,-0.883 0.996,-1.68 1.344,-2.453 l 0.035,0.012 c -0.09,1.007 -0.113,1.925 -0.113,3.101 l 0,3.16 0.922,0 0,-7.55 -0.989,0 -2.398,3.832 c -0.524,0.839 -1.028,1.703 -1.399,2.519 l -0.031,-0.012 c 0.055,-0.953 0.067,-1.859 0.067,-3.113 l 0,-3.226 -0.918,0 z"
                 style="fill:#231f20;fill-opacity:1;fill-rule:nonzero;stroke:none"
                 id="path3200" /><path
                 d="m 209.836,10.984 0.984,0 0,-7.551 -0.984,0 0,7.551 z"
                 style="fill:#231f20;fill-opacity:1;fill-rule:nonzero;stroke:none"
                 id="path3202" /><path
                 d="m 216.418,6.973 -2.922,0 0,-2.723 3.27,0 0,-0.816 -4.254,0 0,7.55 4.086,0 0,-0.82 -3.102,0 0,-2.383 2.922,0 0,-0.808 z"
                 style="fill:#231f20;fill-opacity:1;fill-rule:nonzero;stroke:none"
                 id="path3204" /><path
                 d="m 219.008,7.445 0.996,0 c 1.039,0 1.703,0.571 1.703,1.434 0,0.973 -0.707,1.398 -1.738,1.398 -0.469,0 -0.793,-0.031 -0.961,-0.078 l 0,-2.754 z m -0.977,3.438 c 0.496,0.09 1.211,0.156 1.871,0.156 1.043,0 1.723,-0.199 2.184,-0.617 0.371,-0.336 0.594,-0.848 0.594,-1.445 0,-0.985 -0.625,-1.645 -1.41,-1.915 l 0,-0.031 c 0.57,-0.203 0.918,-0.742 1.097,-1.523 0.246,-1.055 0.426,-1.781 0.582,-2.074 l -1.008,0 c -0.125,0.226 -0.293,0.863 -0.492,1.804 -0.222,1.043 -0.64,1.434 -1.523,1.469 l -0.918,0 0,-3.273 -0.977,0 0,7.449 z"
                 style="fill:#231f20;fill-opacity:1;fill-rule:nonzero;stroke:none"
                 id="path3206" /><path
                 d="m 225.031,3.434 -0.984,0 0,7.55 0.984,0 0,-7.55 z m 1.157,9.261 -1.438,-1.308 -0.793,0 1.039,1.308 1.192,0 z"
                 style="fill:#231f20;fill-opacity:1;fill-rule:nonzero;stroke:none"
                 id="path3208" /><path
                 d="m 230.441,6.57 -0.75,2.172 c -0.168,0.496 -0.281,0.942 -0.394,1.379 l -0.02,0 c -0.113,-0.437 -0.226,-0.906 -0.382,-1.367 l -0.739,-2.184 2.285,0 z m -2.484,-0.761 -0.785,-2.375 -1.008,0 2.574,7.55 1.168,0 2.574,-7.55 -1.042,0 -0.805,2.375 -2.676,0 z"
                 style="fill:#231f20;fill-opacity:1;fill-rule:nonzero;stroke:none"
                 id="path3210" /><path
                 d="m 168.801,50.09 0.832,0 0,-48.605 -0.832,0 0,48.605 z"
                 style="fill:#918f90;fill-opacity:1;fill-rule:nonzero;stroke:none"
                 id="path3212" /><path
                 d="M 20.25,47.855 C 9.609,47.855 0.938,37.355 0.938,24.477 0.938,11.598 9.609,1.098 20.25,1.098 c 10.641,0 19.312,10.504 19.312,23.379 0,12.878 -8.671,23.375 -19.312,23.378"
                 style="fill:#171316;fill-opacity:1;fill-rule:nonzero;stroke:none"
                 id="path3214" /><path
                 d="M 20.25,1.301 C 9.707,1.301 1.117,11.707 1.117,24.48 c 0,12.762 8.59,23.18 19.133,23.18 10.539,0 19.133,-10.418 19.133,-23.18 0,-12.773 -8.594,-23.179 -19.133,-23.179"
                 style="fill:#e7e8e8;fill-opacity:1;fill-rule:nonzero;stroke:none"
                 id="path3216" /><path
                 d="m 20.25,4.598 c -8.773,0 -15.914,8.929 -15.914,19.879 0,10.945 7.141,19.878 15.914,19.878 8.773,-0.003 15.926,-8.933 15.926,-19.878 0,-10.95 -7.153,-19.879 -15.926,-19.879"
                 style="fill:#171316;fill-opacity:1;fill-rule:nonzero;stroke:none"
                 id="path3218" /><path
                 d="m 20.25,44.16 c -8.66,0 -15.73,-8.828 -15.73,-19.676 0,-10.851 7.07,-19.687 15.73,-19.687 8.668,0 15.73,8.836 15.73,19.687 0,10.848 -7.062,19.676 -15.73,19.676"
                 style="fill:#ffffff;fill-opacity:1;fill-rule:nonzero;stroke:none"
                 id="path3220" /><path
                 d="m 34.027,26.863 c 0,0 -0.687,-0.023 -1.226,0.047 -0.531,0.074 -3.516,1.27 -3.59,1.383 -0.074,0.105 0.109,0.141 0.109,0.262 0,0.121 -0.277,0.086 -0.605,0.086 -0.328,0 -1.524,0.554 -1.934,0.679 -0.41,0.118 -0.593,0.325 -1.14,0.157 -0.543,-0.172 -3.239,-0.329 -3.375,-0.329 -0.133,0 -0.582,-0.132 -0.801,-0.496 -0.281,-0.472 -1.461,-1.656 -1.594,-1.691 -0.133,-0.039 -0.496,0.203 -0.559,0.301 -0.058,0.097 -0.226,0.582 -0.398,1.328 -0.168,0.754 -0.449,0.984 -0.605,1.117 -0.157,0.133 -2.395,2.223 -2.696,2.492 -0.304,0.266 -0.593,0.219 -0.593,0.219 l -2.735,-0.063 c 0,0 -2.965,0.012 -3.121,0.012 -0.16,0 -0.898,0.168 -0.898,0.168 -0.157,-0.012 -0.082,-0.117 0.172,-0.41 0.253,-0.289 1.207,-0.375 1.656,-0.313 0.449,0.059 0.097,-0.109 0.097,-0.109 -0.445,-0.183 -1.027,0 -1.234,0 -0.203,0 -0.023,-0.144 0.313,-0.375 0.343,-0.23 1.246,-0.219 1.902,-0.156 0.652,0.058 0.16,-0.063 0.16,-0.063 -0.547,-0.191 -1.117,-0.168 -1.602,-0.132 -0.484,0.035 0.219,-0.485 0.68,-0.555 0.461,-0.074 1.16,0.336 1.356,0.215 0.191,-0.121 -0.45,-0.231 -0.836,-0.328 -0.387,-0.094 -0.641,-0.18 -0.035,-0.411 0.605,-0.226 1.171,0.122 1.5,0.157 0.324,0.039 0.109,-0.121 0.109,-0.121 -0.582,-0.204 -0.352,0 -0.727,-0.18 -0.375,-0.18 0.411,-0.328 0.641,-0.305 0.23,0.028 0.957,0.207 1.039,0.231 0.086,0.027 0.254,0.113 0.086,-0.094 -0.168,-0.207 -0.723,-0.289 -0.723,-0.289 0,0 -0.675,-0.192 -0.172,-0.402 0.567,-0.235 0.735,-0.024 0.895,0.074 0.219,0.136 0.363,0.086 0.219,0 -0.145,-0.086 -0.145,-0.149 -0.145,-0.149 0.52,-0.336 1.024,0.11 1.258,0.16 0.227,0.047 0.059,-0.035 -0.063,-0.23 -0.121,-0.195 0.786,-0.121 0.786,-0.121 0.293,-0.363 0.523,-0.242 0.523,-0.242 0,0 -0.242,-0.278 -0.047,-0.617 0.192,-0.34 0.324,-0.024 0.473,0.109 0.141,0.133 0.082,-0.024 0.055,-0.145 -0.02,-0.121 -0.098,-0.269 0.101,-0.582 0.242,-0.398 0.254,0 0.254,0.145 0,0.144 0.203,0.437 0.262,0.437 0.062,0 -0.047,-0.304 -0.047,-0.605 0,-0.305 0.621,-0.399 0.676,-0.399 0.062,0 0.136,0.907 0.136,0.907 0,0 0.012,-0.848 0.18,-1.043 0.172,-0.192 0.379,-0.176 0.379,-0.25 0,-0.074 -0.172,-0.172 -0.281,-0.246 -0.11,-0.071 -0.242,-0.071 -0.387,-0.133 -0.145,-0.059 -0.422,-0.277 -0.328,-0.445 0.055,-0.094 0.117,-0.208 0.16,-0.29 0.16,0.016 0.293,0.047 0.289,0.11 l 0.449,-0.715 c 0,0 -0.168,0.047 -0.367,-0.047 0.133,-0.168 0.274,-0.312 0.367,-0.344 0.313,0.094 0.34,-0.07 0.856,-0.105 0.523,-0.039 0.535,0.203 0.836,0.23 0.301,0.024 0.23,0.133 0.437,0.133 0.203,0 0.121,-0.16 -0.027,-0.363 -0.141,-0.207 -0.313,-0.375 -0.156,-0.484 0.156,-0.11 0.156,0.035 0.242,0.093 0.082,0.063 0.082,-0.191 0.336,-0.312 0.222,-0.106 0.254,0.289 0.308,0.461 0.047,0.168 0.129,0.058 0.129,0.058 0.016,-0.543 0,-0.531 0.172,-0.543 0.168,-0.011 0.254,0.313 0.254,0.446 0,0.132 0.035,0.242 0.07,0.097 0.039,-0.144 0.512,-0.675 0.703,-0.699 0.192,-0.027 0.051,0.192 0,0.324 -0.05,0.133 -0.023,0.242 -0.023,0.242 0,0 0.504,-0.527 0.664,-0.472 0.363,0.125 0.293,0.144 0.242,0.437 -0.047,0.289 -1.113,1.778 -1.176,1.887 -0.058,0.109 -0.082,0.184 0.161,0.098 0.242,-0.086 0.168,0.058 0.265,0.254 0.098,0.195 0.399,0.41 0.473,0.41 0.074,0 0.641,-0.422 1.039,-0.703 0.402,-0.278 0.668,-0.36 1.055,-0.289 0.383,0.074 -0.063,0.168 -0.145,0.363 -0.086,0.195 0.203,0.109 0.203,0.109 0,0 0.532,-0.386 0.641,-0.449 0.109,-0.059 0.594,-0.082 0.402,0.145 -0.195,0.234 -0.136,0.316 -0.136,0.449 0,0.133 0.46,-0.289 0.668,-0.469 0.203,-0.184 0.664,-0.051 0.664,-0.051 0.777,-1.062 2.058,-1.511 2.398,-1.523 0.336,-0.012 0.094,0.18 -0.027,0.242 -0.121,0.059 -0.289,0.207 -0.411,0.387 -0.121,0.179 -0.023,0.168 0.11,0.093 0.129,-0.07 0.883,-0.324 1.246,-0.335 0.363,-0.012 0.086,0.167 -0.133,0.398 -0.219,0.23 -0.883,0.676 -1.055,0.836 -0.168,0.156 0.071,0.168 0.149,0.109 0.07,-0.062 0.555,-0.195 1.086,-0.754 0.535,-0.554 0.93,-0.398 0.996,-0.289 0.086,0.164 -0.172,0.473 -0.582,0.871 -0.414,0.399 -1.285,0.75 -1.578,0.969 -0.289,0.219 0.246,0.024 0.246,0.024 0.98,-0.555 2.105,-0.93 2.445,-0.969 0.34,-0.035 1.004,0.012 1.098,0.316 0.098,0.305 -0.363,0.098 -0.965,0.242 -0.457,0.11 -1.371,0.411 -1.648,0.618 -0.278,0.207 0.156,0.058 0.156,0.058 1.769,-0.75 2.484,-0.519 2.484,-0.519 0.957,0.281 0.41,0.558 0.41,0.558 M 17.707,25.23 c -0.227,-0.019 -0.496,-0.015 -0.496,-0.015 0,0 -0.027,0.172 -0.195,0.305 -0.172,0.132 -0.399,-0.34 -0.496,-0.411 -0.098,-0.074 -0.305,-0.097 -0.473,-0.535 -0.168,-0.433 0.027,-0.422 0.027,-0.422 -0.101,-0.644 0.168,-0.8 0.301,-0.836 0.129,-0.035 0.059,0.254 0.059,0.254 0.086,0.024 0.121,0.168 0.121,0.168 0.281,0.086 0.328,0.242 0.328,0.242 0,0 0.207,0 0.449,0.075 0.242,0.074 0.383,0.328 0.383,0.328 0,0 0.148,0.097 0.351,0.191 0.004,0.004 0.008,0.004 0.012,0.004 1.035,-0.269 0.141,0.774 0.102,0.91 0,0 -0.438,-0.32 -0.473,-0.258"
                 style="fill:#ffffff;fill-opacity:1;fill-rule:nonzero;stroke:none"
                 id="path3222" /><path
                 d="m 34.059,26.895 c 0,0 -0.692,-0.024 -1.227,0.046 -0.531,0.075 -3.52,1.274 -3.59,1.383 -0.074,0.106 0.11,0.141 0.11,0.266 0,0.117 -0.278,0.082 -0.606,0.082 -0.328,0 -1.527,0.558 -1.937,0.68 -0.411,0.121 -0.594,0.324 -1.137,0.156 -0.547,-0.168 -3.242,-0.328 -3.379,-0.328 -0.133,0 -0.578,-0.133 -0.797,-0.496 -0.285,-0.473 -1.461,-1.657 -1.594,-1.692 -0.132,-0.035 -0.496,0.207 -0.558,0.301 -0.059,0.098 -0.231,0.582 -0.399,1.332 -0.168,0.75 -0.449,0.98 -0.605,1.113 -0.156,0.133 -2.395,2.227 -2.695,2.492 -0.309,0.266 -0.598,0.219 -0.598,0.219 l -2.32,-0.011 c -0.461,-0.317 0.933,-0.329 1.148,-0.329 0.219,0 0.094,-0.132 0.094,-0.132 -1.086,-0.11 0.207,-0.278 0.582,-0.305 0.375,-0.024 0.172,-0.11 0.172,-0.11 -0.473,-0.011 -0.664,-0.273 -0.289,-0.335 0.375,-0.063 0.265,-0.145 0.265,-0.145 -1.039,-0.086 -0.91,0.422 -0.91,0.422 -0.945,-0.18 -0.93,0.414 -0.93,0.414 -1.125,0.105 -0.543,0.469 -0.543,0.469 0,0 -2.964,0.011 -3.121,0.011 -0.16,0 -0.898,0.168 -0.898,0.168 -0.156,-0.011 -0.086,-0.117 0.172,-0.406 0.254,-0.293 1.207,-0.375 1.656,-0.316 0.449,0.058 0.094,-0.11 0.094,-0.11 -0.446,-0.183 -1.024,0 -1.231,0 -0.207,0 -0.027,-0.144 0.313,-0.375 0.34,-0.23 1.246,-0.218 1.902,-0.156 0.652,0.059 0.156,-0.062 0.156,-0.062 -0.543,-0.192 -1.113,-0.172 -1.597,-0.133 -0.485,0.035 0.218,-0.485 0.679,-0.555 0.457,-0.074 1.161,0.34 1.352,0.215 0.195,-0.121 -0.449,-0.23 -0.836,-0.328 -0.383,-0.094 -0.637,-0.176 -0.035,-0.41 0.605,-0.227 1.176,0.121 1.5,0.156 0.328,0.039 0.113,-0.117 0.113,-0.117 -0.582,-0.207 -0.355,0 -0.726,-0.18 -0.375,-0.184 0.41,-0.332 0.64,-0.305 0.227,0.024 0.957,0.204 1.039,0.231 0.086,0.023 0.254,0.109 0.086,-0.098 -0.168,-0.207 -0.73,-0.289 -0.73,-0.289 0,0 -0.672,-0.191 -0.168,-0.402 0.57,-0.235 0.738,-0.024 0.898,0.074 0.219,0.137 0.364,0.082 0.215,0 -0.144,-0.086 -0.144,-0.145 -0.144,-0.145 0.519,-0.339 1.027,0.106 1.261,0.157 0.227,0.047 0.059,-0.035 -0.066,-0.231 -0.117,-0.191 0.789,-0.117 0.789,-0.117 0.289,-0.367 0.519,-0.246 0.519,-0.246 0,0 -0.238,-0.277 -0.046,-0.617 0.191,-0.336 0.324,-0.024 0.472,0.113 0.145,0.129 0.086,-0.027 0.059,-0.148 -0.024,-0.121 -0.098,-0.266 0.097,-0.582 0.247,-0.395 0.254,0 0.254,0.148 0,0.145 0.207,0.434 0.266,0.434 0.062,0 -0.047,-0.301 -0.047,-0.606 0,-0.301 0.617,-0.398 0.676,-0.398 0.062,0 0.133,0.906 0.133,0.906 0,0 0.015,-0.844 0.183,-1.039 0.168,-0.195 0.375,-0.18 0.375,-0.254 0,-0.074 -0.168,-0.168 -0.281,-0.242 C 18.184,26.059 18.051,26.059 17.906,26 17.758,25.938 17.48,25.723 17.578,25.551 c 0.094,-0.168 0.145,0.011 0.145,0.011 0.023,0.305 0.519,0.34 0.715,0.278 0.191,-0.059 0.05,0.23 0.05,0.23 0,0 0.383,0.45 0.664,0.387 0.278,-0.059 -0.027,-0.191 -0.293,-0.348 -0.265,-0.156 -0.082,-0.304 -0.035,-0.363 0.047,-0.062 0.336,-0.195 0.207,-0.496 -0.133,-0.305 -0.039,-0.375 0,-0.582 0.035,-0.207 -0.316,-0.254 -0.449,-0.277 -0.133,-0.024 -0.191,-0.145 -0.109,-0.121 0.316,0.089 0.339,-0.071 0.859,-0.11 0.52,-0.035 0.535,0.207 0.832,0.231 0.305,0.023 0.234,0.132 0.438,0.132 0.207,0 0.121,-0.156 -0.024,-0.363 -0.144,-0.203 -0.312,-0.375 -0.16,-0.484 0.16,-0.11 0.16,0.035 0.242,0.097 0.086,0.059 0.086,-0.195 0.34,-0.316 0.219,-0.105 0.254,0.293 0.305,0.461 0.047,0.168 0.133,0.062 0.133,0.062 0.011,-0.546 0,-0.535 0.167,-0.546 0.172,-0.012 0.258,0.316 0.258,0.445 0,0.137 0.035,0.246 0.071,0.101 0.035,-0.148 0.507,-0.679 0.699,-0.703 0.195,-0.023 0.051,0.196 0,0.325 -0.047,0.132 -0.024,0.242 -0.024,0.242 0,0 0.504,-0.524 0.668,-0.469 0.364,0.121 0.289,0.145 0.243,0.434 -0.051,0.289 -1.114,1.777 -1.176,1.89 -0.059,0.106 -0.086,0.176 0.156,0.094 0.242,-0.086 0.172,0.059 0.27,0.254 0.097,0.195 0.398,0.41 0.472,0.41 0.07,0 0.637,-0.422 1.039,-0.699 0.399,-0.278 0.664,-0.363 1.051,-0.293 0.387,0.074 -0.059,0.172 -0.144,0.363 -0.086,0.195 0.207,0.11 0.207,0.11 0,0 0.531,-0.387 0.64,-0.446 0.11,-0.062 0.59,-0.086 0.399,0.145 -0.192,0.23 -0.133,0.316 -0.133,0.445 0,0.137 0.461,-0.289 0.664,-0.473 0.207,-0.179 0.668,-0.047 0.668,-0.047 0.773,-1.062 2.058,-1.511 2.394,-1.523 0.34,-0.012 0.098,0.18 -0.027,0.242 -0.117,0.059 -0.289,0.203 -0.406,0.387 -0.125,0.184 -0.028,0.172 0.109,0.098 0.129,-0.075 0.879,-0.328 1.246,-0.34 0.36,-0.012 0.082,0.172 -0.133,0.402 -0.222,0.227 -0.886,0.676 -1.054,0.832 -0.168,0.156 0.07,0.168 0.144,0.11 0.074,-0.063 0.555,-0.196 1.086,-0.75 0.535,-0.559 0.934,-0.399 0.996,-0.293 0.09,0.16 -0.172,0.472 -0.578,0.871 -0.418,0.402 -1.285,0.75 -1.578,0.968 -0.289,0.223 0.246,0.028 0.246,0.028 0.977,-0.559 2.102,-0.934 2.442,-0.969 0.339,-0.039 1.003,0.012 1.101,0.313 0.094,0.304 -0.363,0.097 -0.969,0.242 -0.453,0.109 -1.367,0.414 -1.644,0.617 -0.278,0.207 0.156,0.062 0.156,0.062 1.77,-0.75 2.481,-0.523 2.481,-0.523 0.957,0.281 0.414,0.559 0.414,0.559 m -18.09,2.468 c -0.715,0.121 -0.426,0.496 -0.426,0.496 0,0 -0.242,-0.05 -0.449,0.145 -0.172,0.164 0.09,0.375 0.09,0.375 0,0 -0.653,0.012 -0.582,0.414 0.07,0.395 1.027,0.141 1.027,0.141 0.133,-0.118 -0.035,-0.059 -0.313,-0.071 -0.281,-0.011 -0.074,-0.242 -0.074,-0.242 0.52,-0.281 0.762,-0.316 0.762,-0.316 -0.629,-0.012 -0.461,-0.289 -0.051,-0.36 0.414,-0.074 0.293,-0.097 0.293,-0.097 -1.004,-0.145 0.617,-0.426 0.676,-0.485 0.062,-0.062 -0.238,-0.121 -0.953,0 m 2.976,-1.984 c -0.121,-0.145 -0.351,0 -0.57,0.363 -0.215,0.363 -0.52,1.16 -0.555,1.297 -0.035,0.129 -0.05,0.129 -0.23,0.301 -0.18,0.168 -0.606,0.543 -0.692,0.894 0,0 -0.062,0.411 0.125,0.145 0.18,-0.266 0.688,-0.738 0.93,-0.844 0.242,-0.113 0.328,-0.367 0.336,-0.597 0.016,-0.231 0.316,-0.977 0.461,-1.079 0.148,-0.093 0.316,-0.336 0.195,-0.48 m 3.547,1.062 c -0.629,-0.082 -0.875,-0.312 -1.004,-0.566 -0.136,-0.254 -0.668,-0.992 -0.968,-1.223 -0.305,-0.23 -0.485,-0.507 -0.536,-0.675 -0.046,-0.172 -0.132,-0.34 -0.195,-0.149 -0.059,0.195 -0.496,0.219 -0.496,0.219 -0.094,0.328 0.254,0.062 1.406,1.137 0.481,0.453 0.727,0.98 0.918,1.281 0.195,0.305 0.789,0.379 1.551,0.379 0.762,0 2.031,0.254 2.453,0.254 0.426,0 0,-0.11 0,-0.11 0,0 -2.504,-0.461 -3.129,-0.547 m 4.461,-0.796 c -0.363,-0.071 -0.484,0.062 -0.625,0.156 -0.148,0.097 -0.148,-0.012 -0.148,-0.012 0,0 0.445,-0.277 -0.192,-0.277 -0.453,0 -0.898,0.316 -0.898,0.316 0,0 0.098,-0.172 -0.121,-0.219 -0.348,-0.078 -0.617,0.168 -0.617,0.168 0,0 -0.082,-0.218 -0.313,-0.218 -0.461,0 -0.812,0.472 -0.812,0.472 -0.071,0.133 0.097,0.074 0.097,0.074 0,0 0.485,-0.277 0.738,-0.304 0.254,-0.024 0.071,0.148 0.071,0.148 0,0 -0.274,0.192 -0.434,0.289 -0.16,0.094 0.035,0.121 0.035,0.121 0,0 0.414,-0.277 0.789,-0.437 0.375,-0.156 0.36,-0.008 0.36,-0.008 0,0 -0.41,0.324 -0.508,0.418 -0.094,0.098 -0.059,0.195 0.035,0.086 0.102,-0.109 1.008,-0.59 1.164,-0.641 0.16,-0.047 0.317,0.024 0.121,0.121 -0.195,0.098 -0.484,0.411 -0.593,0.543 -0.11,0.137 0.183,0.039 0.183,0.039 0.317,-0.253 0.824,-0.507 1.149,-0.546 0.328,-0.036 0.144,0.156 0.144,0.156 0,0 -0.449,0.207 -0.531,0.367 -0.086,0.156 0.254,0.035 0.254,0.035 0,0 0.613,-0.449 0.82,-0.594 0.207,-0.144 0.195,-0.179 -0.168,-0.253 m 1.465,0.304 c -0.172,-0.074 -0.18,-0.051 -0.629,-0.062 -0.449,-0.012 -0.715,0.254 -0.715,0.254 0.305,-0.133 0.692,-0.012 0.871,0.086 0.18,0.097 0.133,0 0.582,-0.024 0.45,-0.027 0.485,-0.074 0.485,-0.148 0,-0.071 -0.426,-0.035 -0.594,-0.106 m -9.93,-2.785 c -0.203,0.352 -0.461,0.207 -0.461,0.207 0.008,-0.144 -0.789,-0.121 -0.789,-0.121 0,0 -0.023,0.168 -0.195,0.301 -0.168,0.133 -0.398,-0.34 -0.496,-0.41 -0.094,-0.075 -0.301,-0.098 -0.469,-0.532 -0.168,-0.437 0.024,-0.425 0.024,-0.425 -0.098,-0.641 0.171,-0.797 0.304,-0.836 0.129,-0.036 0.059,0.254 0.059,0.254 0.082,0.027 0.121,0.171 0.121,0.171 0.277,0.082 0.324,0.243 0.324,0.243 0,0 0.207,0 0.453,0.07 0.239,0.074 0.383,0.328 0.383,0.328 0,0 0.149,0.098 0.352,0.195 0.207,0.098 0.375,0.047 0.375,0.047 0,0 0.121,0.313 0.015,0.508 m -2.23,-0.473 c 0.121,0.266 0.304,0.289 0.387,0.34 0.085,0.047 0.191,0.18 0.242,0.34 0,0 0.156,0.07 0.156,-0.16 0,-0.231 -0.145,-0.324 -0.324,-0.434 -0.184,-0.109 -0.192,-0.41 -0.34,-0.41 -0.145,0 -0.242,0.059 -0.121,0.324 m 0.219,-0.722 c -0.098,-0.114 -0.11,-0.281 -0.157,-0.196 -0.047,0.082 -0.097,0.082 -0.047,0.399 0,0 0.204,-0.024 0.204,0.035 0,0.063 0.015,-0.059 0.132,-0.059 0.121,0 -0.035,-0.074 -0.132,-0.179 m 1.113,0.64 c -0.012,-0.195 -0.11,-0.242 -0.219,-0.269 -0.105,-0.024 -0.387,-0.035 -0.387,-0.035 0,0 0.18,0.133 0.094,0.293 0,0 0.219,0.242 0.067,0.214 -0.161,-0.023 -0.391,-0.265 -0.391,-0.312 0,-0.051 0.035,-0.172 -0.047,-0.148 -0.086,0.027 -0.16,0.121 0.121,0.375 0.25,0.23 0.75,0.293 0.75,0.293 0,0 0.156,0.046 0.156,-0.086 0,-0.133 -0.132,-0.133 -0.144,-0.325"
                 style="fill:#231f20;fill-opacity:1;fill-rule:nonzero;stroke:none"
                 id="path3224" /><path
                 d="M 20.25,0.328 C 9.195,0.332 0.188,11.176 0.188,24.477 c 0,13.296 9.007,24.14 20.062,24.14 l 0,0.199 C 9.098,48.816 0,37.891 0,24.477 0,11.066 9.098,0.133 20.25,0.133 l 0,0.195 z"
                 style="fill:#171316;fill-opacity:1;fill-rule:nonzero;stroke:none"
                 id="path3226" /><path
                 d="m 18.762,26.23 -0.02,0.024 0.02,-0.024 z m -1.328,8.075 1.343,1.992 0.168,-0.113 -1.351,-1.993 -0.16,0.114 z m 0.492,1.453 0.172,-0.106 0.457,0.672 -0.168,0.114 -0.461,-0.68 z m -1.453,-0.742 0.453,0.687 0.168,-0.117 -0.457,-0.684 -0.164,0.114 z m 1.238,-1 0.18,-0.121 0.464,0.675 -0.183,0.121 -0.461,-0.675 z m 0.609,0.894 0.176,-0.125 0.316,0.473 -0.179,0.121 -0.313,-0.469 z m 0.582,-1.301 0.157,-0.113 0.609,0.895 -0.168,0.113 -0.598,-0.895 z m 0.836,-1.632 0.172,0.273 0.156,-0.109 -0.164,-0.286 -0.164,0.122 z m -0.207,0.421 0.328,0.493 0.157,-0.125 -0.325,-0.481 -0.16,0.113 z m -0.187,0.438 0.453,0.68 0.16,-0.121 -0.441,-0.68 -0.172,0.121 z m -2.352,1.535 0.168,-0.117 0.828,1.226 -0.172,0.114 -0.824,-1.223 z m -0.41,0.098 0.168,-0.106 0.824,1.219 -0.168,0.109 -0.824,-1.222 z m 1.512,-0.633 0.164,-0.113 0.808,1.203 -0.168,0.113 -0.804,-1.203 z m 0.961,-0.719 0.812,1.203 0.164,-0.113 -0.816,-1.203 -0.16,0.113 z m -0.688,0.418 0.156,-0.117 0.817,1.203 -0.164,0.117 -0.809,-1.203 z m -2.551,-1.285 0.469,0.715 0.164,-0.113 -0.48,-0.711 -0.153,0.109 z m 0.325,-0.219 0.16,-0.125 0.57,0.856 -0.168,0.113 -0.562,-0.844 z m -0.664,0.446 0.164,-0.122 0.363,0.543 -0.168,0.118 -0.359,-0.539 z m 2.253,-1.672 0.629,0.945 0.168,-0.121 -0.629,-0.941 -0.168,0.117 z m 0.969,0 0.25,0.367 0.164,-0.117 -0.246,-0.36 -0.168,0.11 z m -0.734,-0.375 0.152,-0.114 0.817,1.204 -0.168,0.113 -0.801,-1.203 z M 10.77,18.98 11.043,19.391 11.211,19.277 10.926,18.871 10.77,18.98 z M 6.59,22.082 6.855,22.5 7.023,22.383 6.75,21.969 6.59,22.082 z m 0.933,-3.621 0.387,0.566 0.168,-0.113 -0.39,-0.57 -0.165,0.117 z m 2.27,0.516 0.754,1.117 0.164,-0.117 -0.758,-1.114 -0.16,0.114 z M 7.559,19.238 8.477,20.609 8.656,20.484 7.734,19.125 7.559,19.238 z M 7.531,19.91 7.695,19.793 8.438,20.898 8.27,21.012 7.531,19.91 z m -0.429,0.082 0.16,-0.113 0.754,1.105 -0.168,0.114 -0.746,-1.106 z m -0.008,0.711 0.164,-0.113 0.746,1.09 -0.168,0.113 -0.742,-1.09 z m -0.282,0.274 0.645,0.964 0.172,-0.113 -0.652,-0.961 -0.165,0.11 z M 6.52,21.262 6.68,21.148 7.332,22.109 7.164,22.223 6.52,21.262 z m 2.625,-2.539 0.16,-0.114 0.687,1.004 -0.168,0.117 -0.679,-1.007 z m -0.321,0.238 0.68,1.004 0.168,-0.113 -0.688,-1.004 -0.16,0.113 z M 8.07,18.562 8.234,18.449 9.367,20.105 9.199,20.219 8.07,18.562 z m 2.2,0.387 0.16,-0.109 0.504,0.738 -0.168,0.113 -0.496,-0.742 z m 0.488,9.024 -0.668,-0.989 -0.164,0.114 0.664,0.984 0.168,-0.109 z m 2.488,0.125 -0.664,-0.985 -0.168,0.114 0.664,0.984 0.168,-0.113 z m -0.492,-0.012 -0.168,0.109 -0.664,-0.98 0.168,-0.113 0.664,0.984 z m -1.356,0.125 -0.16,0.117 -0.976,-1.453 0.164,-0.117 0.972,1.453 z m 0.426,-0.082 -0.16,0.117 -1.129,-1.668 0.168,-0.113 1.121,1.664 z m 0.528,0.074 -0.813,-1.203 -0.16,0.109 0.809,1.203 0.164,-0.109 z M 10.27,27.949 10.098,28.055 9.57,27.27 9.738,27.16 10.27,27.949 z M 9.746,27.906 9.367,27.344 9.199,27.457 9.574,28.012 9.746,27.906 z M 9.312,27.961 9.141,28.07 8.832,27.621 9,27.508 9.312,27.961 z m 1.965,-1.375 -0.312,-0.453 -0.168,0.113 0.308,0.449 0.172,-0.109 z m 2.282,1.269 -0.168,0.11 -0.309,-0.449 0.168,-0.114 0.309,0.453 z m 0.503,0 -0.207,-0.3 -0.167,0.113 0.207,0.297 0.167,-0.11 z m -6.32,2.086 0.707,1.047 0.168,-0.113 -0.711,-1.043 -0.164,0.109 z m -1.23,0.309 0.453,0.688 0.164,-0.114 -0.457,-0.683 -0.16,0.109 z m 0.496,-1.406 0.347,0.519 0.168,-0.113 -0.355,-0.52 -0.16,0.114 z m 1.289,1.242 0.18,-0.125 0.343,0.496 -0.183,0.121 -0.34,-0.492 z M 8.77,28.621 9.43,29.605 9.613,29.484 8.945,28.5 8.77,28.621 z M 7.242,29.926 7.406,29.809 8.289,31.121 8.121,31.234 7.242,29.926 z M 6.699,29.812 6.867,29.707 7.609,30.816 7.441,30.93 6.699,29.812 z M 7.328,28.633 7.5,28.527 8.066,29.359 7.902,29.473 7.328,28.633 z m 0.344,-0.211 0.57,0.84 L 8.41,29.148 7.844,28.316 7.672,28.422 z M 8.02,28.211 8.191,28.105 8.883,29.117 8.715,29.23 8.02,28.211 z m 1.25,0.418 0.171,-0.106 0.528,0.786 -0.168,0.113 -0.531,-0.793 z m 0.519,0.043 0.383,0.562 0.164,-0.113 -0.375,-0.555 -0.172,0.106 z m 0.492,0.023 0.172,-0.109 0.305,0.453 -0.164,0.109 -0.313,-0.453 z m 3.66,-4.59 -0.496,-0.726 -0.168,0.113 0.493,0.723 0.171,-0.11 z m 1.043,-0.597 -0.496,-0.731 -0.168,0.114 0.492,0.722 0.172,-0.105 z M 15.5,22.5 l -0.344,-0.504 -0.164,0.109 0.34,0.5 L 15.5,22.5 z m 2.539,-0.531 -0.344,-0.504 -0.152,0.117 0.328,0.496 0.168,-0.109 z m -2.961,0.992 -0.172,0.105 -0.328,-0.496 0.156,-0.113 0.344,0.504 z m 6.442,-1.566 -0.477,-0.7 -0.168,0.117 0.473,0.692 0.172,-0.109 z m 0.347,-0.204 -0.172,0.11 -0.332,-0.496 0.168,-0.114 0.336,0.5 z m 1.047,0.133 -0.316,-0.465 -0.168,0.114 0.316,0.457 0.168,-0.106 z m -0.434,0.067 -0.171,0.109 -0.442,-0.652 0.168,-0.114 0.445,0.657 z m -6.617,0.945 -0.172,0.105 -0.461,-0.691 0.168,-0.117 0.465,0.703 z m 0.567,0.094 -0.516,-0.762 -0.168,0.113 0.512,0.758 0.172,-0.109 z m 0.894,-0.805 -0.672,-1.004 -0.168,0.109 0.668,1.004 0.172,-0.109 z m 1.11,0.207 -0.172,0.109 -0.668,-1.003 0.164,-0.114 0.676,1.008 z m 2.597,-0.426 -0.172,0.11 -0.668,-1.004 0.168,-0.114 0.672,1.008 z m -1.855,0.809 -0.852,-1.262 -0.168,0.113 0.848,1.258 0.172,-0.109 z m -0.473,-1.41 -0.844,-1.262 -0.171,0.113 0.843,1.258 0.172,-0.109 z m 1.945,0.73 -1.14,-1.676 -0.168,0.114 1.137,1.672 0.171,-0.11 z m -0.796,0.965 -0.172,0.109 -0.942,-1.39 0.164,-0.114 0.95,1.395 z m -0.239,-1.07 -0.168,0.109 -1.742,-2.566 0.164,-0.114 1.746,2.571 z m 0.539,0.09 -1.558,-2.301 -0.164,0.109 1.554,2.301 0.168,-0.109 z m -3.082,1.156 -1.226,-1.817 -0.168,0.114 1.226,1.812 0.168,-0.109 z m 0.371,-0.176 -0.171,0.109 -1.223,-1.812 0.168,-0.113 1.226,1.816 z m -1.582,-0.93 -0.23,-0.328 -0.168,0.113 0.227,0.325 0.171,-0.11 z m 1.528,-0.578 -0.172,0.11 -0.227,-0.336 0.168,-0.11 0.231,0.336 z m 1.367,1.313 -0.172,0.109 -0.223,-0.324 0.168,-0.113 0.227,0.328 z m 1.609,0.242 -0.347,-0.496 -0.168,0.113 0.343,0.492 0.172,-0.109 z m 0.512,0.035 -0.344,-0.496 -0.164,0.109 0.34,0.496 0.168,-0.109 z m -5.855,1.695 -0.172,0.106 -0.817,-1.203 0.168,-0.114 0.821,1.211 z m -0.868,-0.589 -0.168,0.109 -0.312,-0.449 0.168,-0.114 0.312,0.454 z m 1.254,3.308 -0.597,-0.875 -0.164,0.109 0.589,0.883 0.172,-0.117 z m -3.164,-1.098 -0.488,-0.726 -0.164,0.113 0.484,0.723 0.168,-0.11 z m 1.512,-0.644 -0.18,0.121 -0.781,-1.164 0.18,-0.121 0.781,1.164 z m -0.711,1.09 -0.168,0.113 -1.051,-1.547 0.18,-0.125 1.039,1.559 z m 2.148,1.043 -0.168,0.121 -1.136,-1.684 0.164,-0.121 1.14,1.684 z m -1.406,-0.653 -0.16,0.114 -1.492,-2.211 0.156,-0.121 1.496,2.218 z m 0.828,0.52 -0.164,0.109 -1.98,-2.937 0.164,-0.114 1.98,2.942 z m -2.722,-1.164 -0.172,0.105 -0.309,-0.445 0.168,-0.113 0.313,0.453 z m 3.793,0.598 -0.172,0.109 -0.203,-0.297 0.168,-0.113 0.207,0.301 z m 7.265,-7.442 -0.316,-0.465 -0.156,0.106 0.308,0.472 0.164,-0.113 z m -1.297,0.195 -0.523,-0.761 -0.172,0.113 0.527,0.758 0.168,-0.11 z m 1.981,0.793 -0.52,-0.761 -0.168,0.113 0.52,0.754 0.168,-0.106 z m 0.371,-0.879 -0.524,-0.757 -0.156,0.113 0.512,0.754 0.168,-0.11 z m -0.594,1.27 -0.168,0.109 -1.273,-1.879 0.172,-0.113 1.269,1.883 z m -0.734,-0.387 -0.172,0.11 -1.133,-1.672 0.168,-0.11 1.137,1.672 z m 1.258,-0.261 -0.172,0.109 -0.981,-1.473 0.168,-0.113 0.985,1.477 z m 7.222,8.925 0.25,0.371 0.168,-0.121 -0.246,-0.359 -0.172,0.109 z m 0.508,0.043 0.348,0.516 0.172,-0.121 -0.348,-0.504 -0.172,0.109 z m 1.457,0.356 0.246,0.371 0.172,-0.121 -0.246,-0.363 -0.172,0.113 z m -0.535,-0.078 0.172,-0.11 0.668,0.985 -0.172,0.121 -0.668,-0.996 z m -0.121,0.535 0.16,-0.113 0.816,1.203 -0.168,0.113 -0.808,-1.203 z m -0.145,0.531 0.512,0.758 0.172,-0.121 -0.516,-0.75 -0.168,0.113 z m -0.218,0.379 0.25,0.359 0.156,-0.121 -0.242,-0.363 -0.164,0.125 z m -3.848,-10.371 -0.738,-1.113 -0.172,0.113 0.742,1.109 0.168,-0.109 z m -1.27,-0.465 -0.75,-1.109 -0.168,0.113 0.746,1.105 0.172,-0.109 z m 0.637,0.953 -0.172,0.106 -0.504,-0.758 0.168,-0.117 0.508,0.769 z m 0.527,0.067 -0.171,0.109 -1.27,-1.879 0.168,-0.113 1.273,1.883 z M 6.398,26.512 6.637,26.883 6.805,26.77 6.562,26.398 6.398,26.512 z M 8.477,24.594 8.723,24.961 8.891,24.848 8.641,24.48 8.477,24.594 z M 8.066,23.98 8.312,24.352 8.48,24.238 8.227,23.867 8.066,23.98 z m 1.133,-0.464 0.242,0.371 0.168,-0.114 -0.246,-0.371 -0.164,0.114 z m 1.278,-0.973 0.257,0.375 0.168,-0.113 -0.265,-0.375 -0.16,0.113 z m 1.32,-0.902 0.242,0.375 0.168,-0.114 -0.246,-0.371 -0.164,0.11 z m 1.297,-0.926 0.277,0.406 0.168,-0.113 -0.285,-0.406 -0.16,0.113 z m 0.316,-0.254 0.164,-0.113 0.25,0.371 -0.172,0.117 -0.242,-0.375 z m 0.301,-0.258 0.184,0.266 0.164,-0.11 -0.188,-0.269 -0.16,0.113 z m -1.227,1.031 0.246,0.375 0.168,-0.109 -0.253,-0.375 -0.161,0.109 z m -1.011,0.641 0.16,-0.113 0.258,0.383 -0.172,0.113 -0.246,-0.383 z m 1.32,-0.887 0.16,-0.109 0.293,0.414 -0.168,0.113 -0.285,-0.418 z m -6.176,5.117 0.164,-0.109 0.348,0.52 -0.168,0.113 -0.344,-0.524 z m 0.996,-1.367 0.356,0.52 0.168,-0.113 -0.36,-0.516 -0.164,0.109 z m 0.918,-0.781 0.352,0.523 0.16,-0.113 -0.348,-0.523 -0.164,0.113 z m 1.504,-1.332 0.176,-0.125 0.383,0.59 -0.168,0.113 -0.391,-0.578 z m 1.039,-0.605 0.36,0.519 0.168,-0.117 -0.352,-0.516 -0.176,0.114 z m 1.024,-0.641 0.16,-0.113 0.355,0.519 -0.168,0.11 -0.347,-0.516 z m -5.141,4.523 0.309,0.453 0.168,-0.113 -0.317,-0.453 -0.16,0.113 z m -0.105,-0.867 0.703,1.051 0.172,-0.117 -0.715,-1.047 -0.16,0.113 z m 0.503,0.031 0.161,-0.109 0.507,0.746 -0.168,0.109 -0.5,-0.746 z m 2.008,-2.015 0.16,-0.113 0.508,0.734 -0.168,0.113 -0.5,-0.734 z M 7.816,24.32 7.98,24.211 8.566,25.078 8.395,25.191 7.816,24.32 z m 1.84,-1.554 0.52,0.785 0.172,-0.113 -0.524,-0.786 -0.168,0.114 z m 0.977,-0.707 0.164,-0.114 0.5,0.743 -0.168,0.113 -0.496,-0.742 z m -1.789,1.652 0.16,-0.113 0.355,0.515 -0.168,0.11 -0.347,-0.512 z m 18.308,-2.914 -0.183,0.113 -0.735,-1.109 0.168,-0.113 0.75,1.109 z"
                 style="fill:#90959a;fill-opacity:1;fill-rule:nonzero;stroke:none"
                 id="path3228" /><path
                 d="m 6.293,17.957 c 1.961,-6.23 6.859,-12.156 14.019,-12.156 7.09,0.058 12.016,5.972 13.899,12.156 l -27.918,0 z"
                 style="fill:#90959a;fill-opacity:1;fill-rule:nonzero;stroke:none"
                 id="path3230" /><path
                 d="m 27.371,8.375 -0.07,8.676 -0.621,-0.043 -0.368,0.23 c -2.796,0.524 -6.191,-0.91 -6.191,-0.91 -3.48,1.504 -5.91,0.981 -5.91,0.981 l -0.387,-0.332 -0.687,0.066 0.105,-8.633 6.879,-0.715 0.527,-0.054 6.723,0.734 z"
                 style="fill:#171316;fill-opacity:1;fill-rule:nonzero;stroke:none"
                 id="path3232" /><path
                 d="M 26.297,9.051 26.914,8.699 20.934,8.07 20.91,8.066 20.598,8.293 c 3.343,1.32 5.699,0.758 5.699,0.758 m -12.723,7.504 0.637,0.5 0.176,-7.688 -0.703,-0.547 -0.11,7.735 z M 19.84,8.066 20.121,8.277 C 16.797,9.738 14.543,9.262 14.543,9.262 L 13.875,8.734 19.84,8.066 z m 7.144,0.844 0,7.668 -0.617,0.461 0.02,-7.797 0.597,-0.332 z"
                 style="fill:#e7e8e8;fill-opacity:1;fill-rule:nonzero;stroke:none"
                 id="path3234" /><path
                 d="m 20.324,16.164 0.117,-7.73 c 0.227,0.097 2.907,1.277 5.731,0.839 0,0 -0.047,7.192 -0.055,7.844 -1.015,0.067 -3.347,0.145 -5.793,-0.953 M 20.023,16.16 20.18,8.492 c -2.547,1.004 -4.621,1.196 -5.602,1.024 l -0.035,0.05 -0.18,7.563 c 1.903,0.328 3.75,-0.203 5.66,-0.969"
                 style="fill:#ffffff;fill-opacity:1;fill-rule:nonzero;stroke:none"
                 id="path3236" /><path
                 d="m 19.328,12.547 0.336,-0.09 0,-0.09 -0.336,0.09 0,0.09 z m 0,0.363 0.336,-0.094 0,-0.089 -0.336,0.089 0,0.094 z"
                 style="fill:#171316;fill-opacity:1;fill-rule:nonzero;stroke:none"
                 id="path3238" /><path
                 d="m 15.777,14.996 0,-0.043 -0.644,0 0,0.043 0.055,0 c 0.062,0 0.105,0.02 0.132,0.055 0.016,0.019 0.028,0.078 0.028,0.168 l 0,0.969 c 0,0.078 -0.008,0.124 -0.016,0.152 -0.004,0.015 -0.023,0.031 -0.043,0.047 -0.035,0.019 -0.07,0.027 -0.101,0.027 l -0.055,0 0,0.039 0.644,0 0,-0.039 -0.058,0 c -0.059,0 -0.102,-0.019 -0.133,-0.055 -0.016,-0.023 -0.027,-0.082 -0.027,-0.171 l 0,-0.969 c 0,-0.074 0.003,-0.125 0.015,-0.149 0.008,-0.019 0.02,-0.035 0.047,-0.047 0.031,-0.019 0.063,-0.027 0.098,-0.027 l 0.058,0 z m 0.024,1.457 0.41,0 0.914,-1.125 0,0.867 c 0,0.09 -0.012,0.149 -0.031,0.172 -0.028,0.031 -0.071,0.047 -0.129,0.047 l -0.051,0 0,0.039 0.52,0 0,-0.039 -0.055,0 c -0.059,0 -0.106,-0.019 -0.133,-0.059 -0.016,-0.023 -0.027,-0.078 -0.027,-0.16 l 0,-1.265 -0.035,0 -0.989,1.207 0,-0.922 c 0,-0.094 0.012,-0.153 0.028,-0.176 0.031,-0.027 0.074,-0.043 0.129,-0.043 l 0.054,0 0,-0.043 -0.523,0 0,0.043 0.051,0 c 0.066,0 0.113,0.02 0.14,0.059 0.016,0.023 0.024,0.078 0.024,0.16 l 0,1.043 c -0.047,0.051 -0.078,0.086 -0.102,0.101 -0.023,0.016 -0.055,0.032 -0.098,0.043 -0.019,0.008 -0.054,0.012 -0.097,0.012 l 0,0.039 z"
                 style="fill:#171316;fill-opacity:1;fill-rule:nonzero;stroke:none"
                 id="path3240" /><path
                 d="m 17.516,12.73 0,-0.042 -0.524,0.128 0,0.039 0.047,-0.011 c 0.051,-0.012 0.082,-0.004 0.109,0.027 0.012,0.016 0.02,0.07 0.02,0.156 l 0,0.922 c 0,0.074 -0.004,0.121 -0.012,0.149 -0.004,0.019 -0.015,0.039 -0.039,0.054 -0.023,0.02 -0.051,0.036 -0.078,0.043 l -0.047,0.012 0,0.039 0.524,-0.125 0,-0.039 -0.047,0.008 c -0.051,0.012 -0.086,0.004 -0.106,-0.024 -0.015,-0.019 -0.023,-0.07 -0.023,-0.156 l 0,-0.926 c 0,-0.07 0.004,-0.121 0.012,-0.144 0.007,-0.02 0.015,-0.039 0.039,-0.055 0.023,-0.023 0.05,-0.039 0.078,-0.047 l 0.047,-0.008 z"
                 style="fill:#171316;fill-opacity:1;fill-rule:nonzero;stroke:none"
                 id="path3242" /><path
                 d="m 16.262,13.48 c 0.16,-0.05 0.261,-0.035 0.355,0.059 0.051,0.051 0.055,0.227 0.055,0.324 0,0.063 -0.016,0.125 -0.039,0.184 -0.024,0.058 -0.059,0.105 -0.106,0.141 -0.047,0.031 -0.101,0.05 -0.16,0.058 -0.035,0.004 -0.043,0.004 -0.097,-0.004 L 16.262,13.48 z m -0.012,-0.179 0,-0.188 c 0,-0.093 0.004,-0.136 0.02,-0.164 0,-0.004 0.105,-0.054 0.128,-0.07 l 0.004,-0.004 0,-0.039 -0.496,0.039 0,0.043 c 0.039,0.008 0.074,0.027 0.098,0.066 0.019,0.02 0.023,0.071 0.023,0.157 l 0,0.968 c 0,0.098 -0.007,0.157 -0.031,0.18 -0.023,0.039 -0.062,0.059 -0.121,0.063 l -0.051,0.007 0,0.039 0.52,-0.062 c 0.129,-0.012 0.23,-0.039 0.304,-0.078 0.075,-0.035 0.137,-0.086 0.188,-0.16 0.051,-0.071 0.09,-0.149 0.082,-0.239 -0.012,-0.136 -0.012,-0.308 -0.09,-0.375 -0.078,-0.07 -0.14,-0.152 -0.215,-0.164 -0.168,-0.031 -0.246,-0.027 -0.363,-0.019"
                 style="fill:#171316;fill-opacity:1;fill-rule:nonzero;stroke:none"
                 id="path3244" /><path
                 d="m 15.691,14.414 0,-0.508 -0.035,0 c -0.011,0.102 -0.031,0.18 -0.062,0.242 -0.024,0.059 -0.067,0.11 -0.121,0.149 -0.051,0.039 -0.102,0.058 -0.164,0.066 -0.059,0.004 -0.055,-0.015 -0.098,-0.054 -0.043,-0.043 -0.043,-0.094 -0.043,-0.153 0,-0.047 0.012,-0.062 0.039,-0.101 0.039,-0.059 0.129,-0.114 0.27,-0.219 0.113,-0.082 0.171,-0.184 0.214,-0.227 0.145,-0.152 0.09,-0.492 -0.027,-0.609 -0.074,-0.074 -0.168,-0.105 -0.285,-0.098 -0.035,0.004 -0.07,0.008 -0.098,0.02 -0.023,0.004 -0.062,0.023 -0.121,0.051 C 15.102,13 15.066,13.016 15.047,13.016 15.035,13.02 15.023,13.012 15.012,13.004 15,12.992 15,12.973 14.996,12.938 l -0.035,0 0,0.507 0.035,-0.004 c 0.012,-0.105 0.035,-0.187 0.063,-0.242 0.027,-0.054 0.066,-0.101 0.121,-0.14 0.054,-0.039 0.101,-0.043 0.168,-0.051 0.218,-0.02 0.195,0.156 0.144,0.32 0,0.004 -0.215,0.25 -0.215,0.25 -0.109,0.078 -0.152,0.133 -0.195,0.18 -0.047,0.047 -0.078,0.113 -0.098,0.164 -0.023,0.055 -0.035,0.109 -0.035,0.172 0,0.105 0.031,0.191 0.098,0.265 0.07,0.071 0.16,0.098 0.262,0.09 0.066,-0.008 0.14,-0.031 0.211,-0.078 0.035,-0.019 0.058,-0.031 0.07,-0.031 0.019,-0.004 0.031,0.004 0.039,0.012 0.012,0.011 0.019,0.035 0.027,0.066 l 0.035,-0.004 z"
                 style="fill:#171316;fill-opacity:1;fill-rule:nonzero;stroke:none"
                 id="path3246" /><path
                 d="m 18.414,12 0,-0.508 -0.035,0.008 c -0.012,0.098 -0.027,0.18 -0.063,0.242 -0.027,0.063 -0.066,0.117 -0.125,0.156 -0.05,0.047 -0.109,0.075 -0.168,0.082 -0.062,0.012 -0.117,-0.003 -0.164,-0.042 -0.043,-0.036 -0.062,-0.086 -0.062,-0.145 0,-0.043 0.012,-0.086 0.043,-0.129 0.039,-0.059 0.133,-0.144 0.277,-0.262 0.121,-0.093 0.203,-0.164 0.242,-0.214 0.047,-0.043 0.082,-0.098 0.106,-0.157 0.023,-0.054 0.035,-0.113 0.035,-0.172 0,-0.109 -0.035,-0.199 -0.109,-0.265 -0.082,-0.071 -0.176,-0.094 -0.293,-0.071 -0.039,0.004 -0.075,0.016 -0.106,0.028 -0.019,0.008 -0.058,0.027 -0.125,0.058 -0.058,0.036 -0.097,0.051 -0.113,0.055 -0.016,0.004 -0.027,0 -0.039,-0.012 -0.008,-0.007 -0.016,-0.027 -0.02,-0.062 l -0.035,0.008 0,0.5 0.035,-0.004 c 0.016,-0.106 0.035,-0.192 0.067,-0.246 0.027,-0.059 0.07,-0.11 0.129,-0.153 0.05,-0.047 0.117,-0.074 0.187,-0.086 0.074,-0.011 0.141,0 0.188,0.039 0.043,0.04 0.066,0.09 0.066,0.161 0,0.035 -0.008,0.07 -0.027,0.109 -0.016,0.043 -0.043,0.082 -0.078,0.117 -0.028,0.027 -0.094,0.082 -0.204,0.176 -0.113,0.086 -0.187,0.156 -0.234,0.207 -0.047,0.047 -0.082,0.102 -0.105,0.156 -0.024,0.055 -0.039,0.114 -0.039,0.172 0,0.106 0.039,0.192 0.109,0.254 0.07,0.062 0.16,0.086 0.269,0.066 0.071,-0.011 0.141,-0.043 0.215,-0.093 0.035,-0.024 0.063,-0.039 0.074,-0.039 0.02,-0.004 0.032,0 0.043,0.007 0.008,0.012 0.02,0.032 0.024,0.063 L 18.414,12 z"
                 style="fill:#171316;fill-opacity:1;fill-rule:nonzero;stroke:none"
                 id="path3248" /><path
                 d="m 17.074,12.102 0,0.039 0.379,-0.055 0,-0.039 -0.039,0.008 C 17.371,12.059 17.34,12.043 17.316,12 17.305,11.977 17.301,11.926 17.301,11.844 l 0,-0.578 c 0,-0.145 -0.012,-0.258 -0.035,-0.332 -0.02,-0.079 -0.063,-0.141 -0.125,-0.188 -0.063,-0.047 -0.145,-0.062 -0.254,-0.047 -0.121,0.016 -0.207,0.059 -0.266,0.121 -0.062,0.063 -0.105,0.141 -0.133,0.235 -0.015,0.066 -0.023,0.187 -0.023,0.359 l 0,0.559 c 0,0.089 -0.008,0.152 -0.027,0.179 -0.016,0.032 -0.047,0.047 -0.09,0.055 l -0.039,0.004 0,0.039 0.464,-0.066 0,-0.039 -0.043,0.007 c -0.042,0.008 -0.074,-0.007 -0.093,-0.043 -0.012,-0.023 -0.02,-0.074 -0.02,-0.156 l 0,-0.625 c 0,-0.055 0.004,-0.121 0.012,-0.195 0.008,-0.074 0.019,-0.129 0.043,-0.172 0.016,-0.047 0.047,-0.082 0.086,-0.113 0.039,-0.036 0.086,-0.051 0.137,-0.059 0.07,-0.012 0.132,0 0.191,0.035 0.051,0.031 0.094,0.078 0.109,0.141 0.024,0.058 0.032,0.164 0.032,0.32 l 0,0.582 c 0,0.09 -0.008,0.145 -0.02,0.168 -0.023,0.035 -0.055,0.055 -0.094,0.063 l -0.039,0.004 z"
                 style="fill:#171316;fill-opacity:1;fill-rule:nonzero;stroke:none"
                 id="path3250" /><path
                 d="m 16.156,12.367 0.016,-0.351 -0.043,0 c -0.008,0.062 -0.02,0.105 -0.035,0.132 -0.02,0.043 -0.051,0.075 -0.086,0.094 -0.039,0.024 -0.09,0.031 -0.153,0.031 l -0.21,0 0,-1.144 c 0,-0.094 0.011,-0.149 0.031,-0.176 0.027,-0.027 0.07,-0.043 0.125,-0.043 l 0.054,0 0,-0.043 -0.636,0 0,0.043 0.054,0 c 0.063,0 0.11,0.02 0.133,0.059 0.02,0.023 0.024,0.074 0.024,0.16 l 0,1.144 -0.176,0 c -0.074,0 -0.121,-0.003 -0.152,-0.011 -0.04,-0.016 -0.071,-0.043 -0.098,-0.082 -0.027,-0.043 -0.043,-0.094 -0.051,-0.164 l -0.039,0 0.016,0.351 1.226,0 z"
                 style="fill:#171316;fill-opacity:1;fill-rule:nonzero;stroke:none"
                 id="path3252" /><path
                 d="m 17.988,13.129 c 0.012,0 0.024,0 0.032,-0.004 0.007,0 0.015,0 0.023,-0.004 0.117,-0.016 0.211,0 0.269,0.051 0.063,0.051 0.094,0.332 0.094,0.426 0,0.09 -0.023,0.172 -0.074,0.234 -0.051,0.066 -0.113,0.106 -0.199,0.113 -0.035,0.008 -0.082,0.008 -0.145,0.004 l 0,-0.82 z m 0.75,-0.68 -0.402,0.094 -0.117,0.496 -0.098,0.004 c -0.031,0.004 -0.059,0.008 -0.074,0.012 -0.012,0 -0.02,0 -0.027,0.004 l -0.032,0.003 0,-0.218 c 0,-0.094 0.008,-0.153 0.028,-0.176 0.023,-0.035 0.058,-0.055 0.105,-0.063 l 0.051,-0.007 0,-0.043 -0.543,0.082 0,0.039 0.047,-0.004 c 0.051,-0.008 0.09,0.004 0.117,0.043 0.008,0.019 0.016,0.07 0.016,0.156 l 0,0.945 c 0,0.094 -0.008,0.153 -0.024,0.176 -0.027,0.035 -0.062,0.059 -0.109,0.067 l -0.047,0.007 0,0.039 0.461,-0.066 c 0.133,-0.023 0.234,-0.047 0.297,-0.082 0.066,-0.031 0.121,-0.082 0.164,-0.148 0.043,-0.067 0.066,-0.145 0.066,-0.227 0,-0.09 0.024,-0.25 -0.027,-0.305 -0.051,-0.062 -0.18,-0.222 -0.289,-0.234 l 0.191,-0.117 c 0.094,-0.063 0.102,-0.352 0.145,-0.391 0.043,-0.039 0.035,-0.027 0.101,-0.043 l 0,-0.043 z"
                 style="fill:#171316;fill-opacity:1;fill-rule:nonzero;stroke:none"
                 id="path3254" /><path
                 d="m 19.238,12.355 0,-0.039 -0.519,0.122 0,0.039 0.043,-0.008 c 0.05,-0.012 0.086,-0.008 0.109,0.023 0.012,0.02 0.02,0.07 0.02,0.156 l 0,0.903 c 0,0.07 -0.004,0.117 -0.008,0.14 -0.008,0.02 -0.02,0.039 -0.039,0.055 -0.028,0.024 -0.051,0.039 -0.082,0.047 l -0.043,0.008 0,0.039 0.519,-0.125 0,-0.039 -0.043,0.012 c -0.05,0.011 -0.086,0.003 -0.109,-0.024 -0.016,-0.019 -0.024,-0.07 -0.024,-0.152 l 0,-0.907 c 0,-0.07 0.004,-0.117 0.012,-0.144 0.008,-0.016 0.016,-0.035 0.039,-0.051 0.024,-0.023 0.051,-0.039 0.082,-0.047 l 0.043,-0.008 z"
                 style="fill:#171316;fill-opacity:1;fill-rule:nonzero;stroke:none"
                 id="path3256" /><path
                 d="M 23.613,14.258 C 23.5,14.234 23.41,14.16 23.344,14.047 23.27,13.902 23.242,13.711 23.262,13.473 c 0.015,-0.243 0.078,-0.422 0.176,-0.532 0.078,-0.086 0.171,-0.117 0.285,-0.089 0.121,0.023 0.218,0.101 0.289,0.23 0.074,0.125 0.093,0.309 0.078,0.543 -0.02,0.258 -0.078,0.441 -0.176,0.547 -0.078,0.086 -0.18,0.113 -0.301,0.086 m 0.012,0.082 c 0.168,0.039 0.32,-0.004 0.453,-0.121 0.137,-0.121 0.211,-0.293 0.227,-0.516 0.019,-0.226 -0.028,-0.43 -0.141,-0.609 -0.113,-0.176 -0.254,-0.285 -0.434,-0.321 -0.175,-0.039 -0.332,0 -0.464,0.118 -0.129,0.121 -0.207,0.297 -0.223,0.531 -0.023,0.238 0.035,0.449 0.164,0.629 0.109,0.156 0.25,0.254 0.418,0.289"
                 style="fill:#171316;fill-opacity:1;fill-rule:nonzero;stroke:none"
                 id="path3258" /><path
                 d="m 22.879,12.68 0,-0.039 -0.637,-0.125 0,0.043 0.055,0.011 c 0.058,0.012 0.105,0.035 0.133,0.078 0.015,0.028 0.027,0.086 0.027,0.176 l 0,0.969 c 0,0.074 -0.008,0.125 -0.016,0.148 -0.003,0.016 -0.019,0.028 -0.043,0.036 -0.035,0.015 -0.066,0.015 -0.101,0.011 l -0.055,-0.011 0,0.043 0.637,0.121 0,-0.043 -0.055,-0.008 C 22.766,14.078 22.723,14.051 22.691,14.008 22.676,13.98 22.664,13.922 22.664,13.832 l 0,-0.969 c 0,-0.074 0.004,-0.121 0.016,-0.144 0.008,-0.02 0.019,-0.031 0.047,-0.043 0.031,-0.012 0.062,-0.012 0.097,-0.004 l 0.055,0.008 z"
                 style="fill:#171316;fill-opacity:1;fill-rule:nonzero;stroke:none"
                 id="path3260" /><path
                 d="M 21.879,13.984 21.91,13.52 21.879,13.512 c -0.031,0.113 -0.074,0.16 -0.129,0.207 -0.203,0.187 -0.457,0.008 -0.559,-0.207 -0.074,-0.141 -0.109,-0.301 -0.109,-0.481 0,-0.14 0.027,-0.265 0.07,-0.375 0.047,-0.109 0.11,-0.179 0.184,-0.218 0.074,-0.04 0.152,-0.047 0.23,-0.028 0.047,0.012 0.094,0.028 0.137,0.051 0.043,0.023 0.082,0.055 0.125,0.09 l 0,0.293 c 0,0.078 -0.008,0.125 -0.012,0.144 -0.011,0.024 -0.027,0.035 -0.046,0.043 -0.02,0.008 -0.055,0.008 -0.11,-0.004 l 0,0.039 0.488,0.114 0,-0.043 -0.023,-0.004 c -0.047,-0.012 -0.082,-0.039 -0.098,-0.082 -0.011,-0.028 -0.015,-0.086 -0.015,-0.164 l 0,-0.321 c -0.071,-0.058 -0.145,-0.109 -0.211,-0.148 -0.071,-0.039 -0.149,-0.063 -0.235,-0.082 -0.242,-0.059 -0.429,-0.004 -0.554,0.148 -0.094,0.121 -0.145,0.27 -0.145,0.454 0,0.128 0.031,0.261 0.082,0.398 0.063,0.156 0.153,0.289 0.262,0.387 0.094,0.086 0.199,0.144 0.328,0.172 0.094,0.023 0.109,0 0.191,-0.016 0.032,-0.008 0.055,-0.008 0.071,-0.008 0.011,0.004 0.019,0.012 0.027,0.027 0.008,0.016 0.016,0.043 0.016,0.079 l 0.035,0.007 z"
                 style="fill:#171316;fill-opacity:1;fill-rule:nonzero;stroke:none"
                 id="path3262" /><path
                 d="m 25.527,15.121 0,-0.039 -0.589,-0.023 0,0.058 c 0.109,0.067 0.144,0.043 0.144,0.227 l 0,0.968 c 0,0.079 -0.008,0.126 -0.016,0.149 -0.007,0.019 -0.023,0.035 -0.05,0.051 -0.032,0.015 -0.067,0.023 -0.102,0.023 l -0.059,0 0,0.043 0.672,0.004 0,-0.039 -0.058,-0.004 c -0.063,0 -0.11,-0.019 -0.137,-0.055 -0.02,-0.023 -0.031,-0.078 -0.031,-0.172 l 0,-0.964 c 0,-0.078 0.004,-0.129 0.015,-0.153 0.008,-0.015 0.024,-0.035 0.047,-0.047 0.035,-0.019 0.071,-0.027 0.106,-0.027 l 0.058,0 z"
                 style="fill:#171316;fill-opacity:1;fill-rule:nonzero;stroke:none"
                 id="path3264" /><path
                 d="M 23.949,15.699 23.637,16.086 23.5,15.262 c -0.02,-0.09 -0.039,-0.18 -0.027,-0.203 0.023,-0.028 0.101,-0.028 0.101,-0.032 l 0.016,-0.074 -0.332,-0.055 0,0.129 0.039,0.004 c 0.047,0.004 0.062,0.02 0.07,0.063 l 0.156,1.047 c 0.039,0.23 -0.011,0.203 -0.164,0.289 -0.019,0.011 -0.058,0.019 -0.101,0.015 l 0,0.039 0.41,0.028 0.316,-0.457 0.293,0.515 0.504,0.024 0,-0.039 -0.043,-0.004 c -0.05,-0.004 -0.261,-0.008 -0.281,-0.047 -0.012,-0.027 -0.039,-0.102 -0.019,-0.184 l 0.25,-1.004 c 0.031,-0.117 0.136,-0.175 0.148,-0.183 l -0.008,-0.063 -0.531,-0.035 0.004,0.063 0.015,0.004 c 0.051,0.007 0.09,0.027 0.11,0.066 0.012,0.023 0.043,0.082 0.015,0.164 l -0.25,0.766 -0.242,-0.399 z"
                 style="fill:#171316;fill-opacity:1;fill-rule:nonzero;stroke:none"
                 id="path3266" /><path
                 d="m 22.461,16.188 0,-0.614 0.273,0.051 c 0.075,0.016 0.121,0.035 0.145,0.066 0.031,0.043 0.055,0.106 0.055,0.196 l 0.035,0.008 0,-0.543 -0.035,-0.004 c -0.008,0.074 -0.02,0.121 -0.028,0.14 -0.008,0.024 -0.027,0.043 -0.054,0.055 -0.028,0.008 -0.063,0.008 -0.118,0 l -0.273,-0.055 0,-0.511 c 0,-0.067 0,-0.11 0.008,-0.125 0.004,-0.016 0.011,-0.024 0.023,-0.032 0.012,-0.004 0.035,-0.004 0.074,0 l 0.211,0.043 c 0.071,0.012 0.121,0.028 0.157,0.047 0.031,0.016 0.058,0.047 0.089,0.09 0.039,0.051 0.079,0.133 0.118,0.234 l 0.039,0.008 -0.11,-0.41 -0.965,-0.184 0,0.047 0.043,0.008 c 0.028,0.004 0.055,0.016 0.082,0.039 0.02,0.02 0.036,0.039 0.043,0.067 0.004,0.023 0.008,0.074 0.008,0.148 l 0,1.012 c 0,0.097 -0.008,0.156 -0.023,0.179 -0.024,0.028 -0.059,0.036 -0.11,0.028 l -0.043,-0.012 0,0.043 0.965,0.184 0.016,-0.34 -0.039,-0.008 c -0.016,0.078 -0.024,0.133 -0.039,0.16 -0.02,0.027 -0.039,0.047 -0.07,0.059 -0.028,0.004 -0.071,0.004 -0.133,-0.008 l -0.344,-0.066 z"
                 style="fill:#171316;fill-opacity:1;fill-rule:nonzero;stroke:none"
                 id="path3268" /><path
                 d="m 21.133,15.09 c 0.015,0.004 0.023,0.008 0.035,0.012 0.012,0 0.02,0.003 0.023,0.007 0.133,0.039 0.239,0.102 0.305,0.184 0.07,0.086 0.106,0.172 0.106,0.269 0,0.094 -0.032,0.165 -0.082,0.204 -0.059,0.043 -0.129,0.046 -0.223,0.019 -0.039,-0.012 -0.094,-0.035 -0.164,-0.07 l 0,-0.625 z m 1.008,-0.461 -0.379,-0.113 -0.481,0.55 c -0.035,-0.011 -0.062,-0.023 -0.086,-0.027 -0.007,-0.004 -0.019,-0.008 -0.031,-0.012 -0.008,0 -0.019,-0.004 -0.031,-0.007 l 0,-0.434 c 0,-0.098 0.012,-0.152 0.027,-0.168 0.031,-0.023 0.07,-0.031 0.121,-0.012 l 0.055,0.016 0,-0.039 -0.606,-0.188 0,0.039 0.051,0.02 c 0.063,0.016 0.106,0.051 0.129,0.098 0.016,0.031 0.024,0.086 0.024,0.171 l 0,0.969 c 0,0.094 -0.008,0.153 -0.028,0.164 -0.027,0.028 -0.07,0.032 -0.125,0.012 l -0.051,-0.016 0,0.043 0.516,0.16 c 0.152,0.047 0.262,0.067 0.332,0.067 0.07,-0.004 0.133,-0.024 0.184,-0.074 0.047,-0.047 0.074,-0.11 0.074,-0.196 0,-0.093 -0.027,-0.183 -0.086,-0.269 -0.055,-0.086 -0.145,-0.16 -0.262,-0.227 l 0.293,-0.336 c 0.063,-0.082 0.121,-0.129 0.168,-0.144 0.051,-0.02 0.113,-0.02 0.192,-0.008 l 0,-0.039 z"
                 style="fill:#171316;fill-opacity:1;fill-rule:nonzero;stroke:none"
                 id="path3270" /><path
                 d="m 25.445,15.688 0.336,-0.016 0,-0.09 -0.336,0.016 0,0.09 z m 0,-0.235 0.336,-0.019 0,-0.09 -0.336,0.015 0,0.094 z"
                 style="fill:#171316;fill-opacity:1;fill-rule:nonzero;stroke:none"
                 id="path3272" /><path
                 d="m 22.84,10.578 0,-0.043 -0.594,-0.07 0,0.043 0.047,0.004 c 0.059,0.008 0.102,0.031 0.121,0.07 0.016,0.023 0.024,0.082 0.016,0.172 l -0.067,0.969 c -0.004,0.078 -0.008,0.129 -0.019,0.148 -0.012,0.02 -0.024,0.031 -0.043,0.043 -0.031,0.016 -0.067,0.02 -0.098,0.016 l -0.051,-0.008 -0.004,0.043 0.59,0.07 0.004,-0.039 -0.051,-0.008 C 22.637,11.984 22.598,11.961 22.574,11.922 22.562,11.895 22.555,11.84 22.562,11.746 l 0.063,-0.969 c 0.004,-0.074 0.012,-0.125 0.023,-0.144 0.004,-0.02 0.02,-0.035 0.043,-0.043 0.032,-0.016 0.063,-0.02 0.094,-0.02 l 0.055,0.008 z"
                 style="fill:#171316;fill-opacity:1;fill-rule:nonzero;stroke:none"
                 id="path3274" /><path
                 d="m 22.164,11.926 0,-0.039 C 22.117,11.863 22.086,11.84 22.059,11.805 22.027,11.762 22,11.699 21.973,11.617 l -0.391,-1.512 -0.035,-0.007 -0.535,1.281 c -0.024,0.059 -0.039,0.094 -0.051,0.109 -0.016,0.02 -0.031,0.032 -0.059,0.039 -0.023,0.004 -0.05,0.004 -0.093,0 l 0,0.043 0.605,0.164 0,-0.043 c -0.062,-0.019 -0.102,-0.043 -0.117,-0.066 -0.016,-0.02 -0.027,-0.047 -0.027,-0.07 0,-0.039 0.015,-0.094 0.042,-0.164 l 0.321,-0.676 0.226,0.805 c 0.032,0.093 0.043,0.156 0.043,0.191 0,0.023 -0.007,0.039 -0.023,0.055 -0.02,0.015 -0.047,0.019 -0.094,0.015 l -0.015,0 0,0.043 0.394,0.102 z"
                 style="fill:#171316;fill-opacity:1;fill-rule:nonzero;stroke:none"
                 id="path3276" /><path
                 d="m 24.215,12.238 0.015,-0.351 -0.039,-0.004 c -0.007,0.062 -0.023,0.105 -0.039,0.129 -0.019,0.043 -0.05,0.07 -0.09,0.086 -0.039,0.015 -0.089,0.019 -0.152,0.011 l -0.215,-0.023 0,-1.145 c 0,-0.093 0.008,-0.148 0.032,-0.171 0.027,-0.028 0.07,-0.036 0.132,-0.032 l 0.051,0.008 0,-0.043 -0.648,-0.07 0,0.043 0.054,0.004 c 0.067,0.008 0.11,0.031 0.137,0.074 0.016,0.023 0.027,0.078 0.027,0.164 l 0,1.144 -0.187,-0.019 c -0.07,-0.012 -0.117,-0.023 -0.148,-0.035 -0.04,-0.02 -0.075,-0.047 -0.102,-0.09 -0.027,-0.043 -0.047,-0.102 -0.051,-0.168 l -0.043,-0.004 0.02,0.352 1.246,0.14 z"
                 style="fill:#171316;fill-opacity:1;fill-rule:nonzero;stroke:none"
                 id="path3278" /><path
                 d="m 25.035,11.105 -0.601,0.004 -0.071,-0.14 c -0.023,-0.067 -0.035,-0.114 -0.035,-0.141 0,-0.027 0.012,-0.047 0.027,-0.066 0.024,-0.016 0.067,-0.028 0.133,-0.032 l 0,-0.046 -0.433,-0.012 0,0.043 c 0.054,0.015 0.09,0.031 0.109,0.051 0.035,0.039 0.07,0.117 0.117,0.238 l 0.489,1.351 0.035,0 0.48,-1.332 c 0.039,-0.109 0.074,-0.179 0.106,-0.211 0.035,-0.027 0.078,-0.046 0.132,-0.046 l 0,-0.047 -0.546,-0.016 0,0.043 c 0.054,0.004 0.093,0.016 0.117,0.035 0.015,0.02 0.023,0.043 0.023,0.067 0,0.039 -0.012,0.093 -0.039,0.168 l -0.043,0.089 z m -0.027,0.086 -0.278,0.789 -0.265,-0.781 0.543,-0.008 z"
                 style="fill:#171316;fill-opacity:1;fill-rule:nonzero;stroke:none"
                 id="path3280" /><path
                 d="m 6.797,32.965 0.289,0 c 0.226,0.289 0.664,0.004 0.824,0 l 0.742,0.004 c 0.176,0.004 1.129,0.484 1.457,0.57 0,0.07 0.008,0.238 0.004,0.309 -0.73,-0.149 -1.261,-0.891 -2.336,-0.453 l -0.8,-0.004 -0.18,-0.426 z m 19.328,8.824 -11.801,0 c 0.321,0.18 0.469,0.258 0.852,0.422 3.363,0 6.73,-0.004 10.097,-0.004 0.317,-0.137 0.598,-0.277 0.852,-0.418 m -5.875,1.523 c 1.125,-0.015 2.328,-0.226 3.09,-0.417 l -6.231,0 c 1.032,0.289 2.079,0.429 3.141,0.417 m -7.066,-2.207 14.078,0.004 0.609,-0.421 -15.305,0 c 0.239,0.179 0.368,0.25 0.618,0.417 M 29.199,39.582 11.234,39.574 11.719,40 28.73,40 29.199,39.582 z m 1.133,-1.094 -20.168,-0.008 0.398,0.422 19.356,0.016 0.414,-0.43 z m 1.672,-2.207 -9.715,0.008 c 0.149,-0.277 0.016,-0.367 -0.055,-0.371 -0.058,-0.004 -0.214,0.129 -0.254,0.168 -0.23,0.215 -0.5,0.426 -0.734,0.621 l 10.469,0.004 0.289,-0.43 z m 0.422,-0.672 -9.977,0 0.449,-0.562 c 0.086,-0.129 0.329,-0.254 0.411,-0.227 0.046,0.02 0.156,0.129 -0.02,0.368 l 9.363,-0.004 -0.226,0.425 z m 0.594,-1.105 -9.688,0 0.516,-0.641 c 0.07,-0.086 0.242,-0.164 0.297,-0.14 0.05,0.023 0.16,0.07 0.019,0.359 l 9.063,0.004 c -0.039,0.086 -0.172,0.336 -0.207,0.418 m 0.687,-1.524 c -0.031,0.086 -0.141,0.336 -0.172,0.422 l -9.336,0 c 0.113,-0.172 0.258,-0.379 0.75,-0.625 0.211,-0.113 0.496,0.059 0.172,0.203 l 8.586,0 z m -6.492,-0.566 c 0.121,0.012 0.293,0.02 0.515,0.02 0.528,0 0.672,0.234 0.672,0.234 0,0 0.637,0.187 0.637,0.02 0,-0.165 0.109,-0.262 -0.105,-0.262 -0.215,0 -0.7,-0.129 -0.883,-0.18 -0.188,-0.047 -0.68,-0.246 -0.856,-0.16 -0.101,0.055 -0.16,0.102 -0.187,0.16 -0.196,0.055 -0.461,0.117 -0.828,0.172 -0.379,0.023 -0.184,0.359 -0.184,0.359 0.492,-0.078 0.914,-0.191 1.219,-0.363 m 6.758,-0.113 -4.664,0 c 0.285,-0.008 0.57,-0.309 0.746,-0.551 0.175,-0.031 0.511,0.234 0.988,-0.02 0.137,-0.07 0.559,0.133 1.262,-0.191 0.316,0.469 1.25,0.379 1.668,0.109 l 0.148,0.227 -0.148,0.426 z M 9.605,37.797 c 7.153,-0.012 14.141,0.008 21.29,0.004 l 0.332,-0.422 c -4.145,0.004 -7.176,0.008 -10.227,0.008 0.176,-0.199 0.148,-0.719 -0.645,0 l -0.222,0 c -0.375,-0.051 -0.668,-0.141 -1.047,-0.285 -0.41,-0.153 -0.949,-0.18 -1.395,-0.399 -0.386,-0.215 -1.027,-1.398 -1.933,-2.074 -0.461,-0.348 -1.004,-0.582 -1.301,-0.82 -0.246,0.05 -0.699,-0.157 -1.016,-0.45 -0.339,-0.043 -0.386,0.09 -0.582,0.137 -0.242,-0.012 -0.769,-0.527 -0.832,-0.527 l -0.839,-0.004 -0.258,0.43 1.008,-0.012 c 0.277,0.113 0.546,0.289 0.828,0.344 0.281,0.05 0.437,-0.125 0.504,-0.098 l 0.976,0.449 -6.965,0 0.207,0.406 7.426,0 c 0.445,0.161 0.918,0.567 1.086,0.684 l -8.152,0 0.242,0.426 8.324,0.004 c 0.195,0.168 0.383,0.523 0.555,0.679 l -8.457,0 0.277,0.418 8.504,0 c 0.387,0.34 1.148,0.481 1.734,0.692 -2.82,0 -5.8,-0.004 -9.754,-0.008 l 0.332,0.418 z"
                 style="fill:#90959a;fill-opacity:1;fill-rule:nonzero;stroke:none"
                 id="path3282" /><path
                 d="M 6.801,32.492 C 5.871,30.066 5.352,27.348 5.352,24.484 5.352,14.203 12.047,5.832 20.25,5.832 l 0,-0.187 c -8.309,0 -15.078,8.46 -15.078,18.832 0,2.863 0.519,5.582 1.437,8.015 l 0.192,0 z"
                 style="fill:#171316;fill-opacity:1;fill-rule:nonzero;stroke:none"
                 id="path3284" /><path
                 d="m 34.273,31.41 c 0.688,-2.144 1.063,-4.484 1.063,-6.933 0,-10.372 -6.774,-18.832 -15.086,-18.832 l 0,0.187 c 8.211,0 14.902,8.371 14.902,18.652 0,2.446 -0.379,4.786 -1.066,6.926 l 0.187,0 z"
                 style="fill:#171316;fill-opacity:1;fill-rule:nonzero;stroke:none"
                 id="path3286" /><path
                 d="m 20.25,48.617 c 11.051,0 20.062,-10.844 20.062,-24.14 0,-13.301 -9.011,-24.149 -20.062,-24.149 l 0,-0.195 c 11.156,0 20.254,10.926 20.254,24.344 0,13.414 -9.098,24.339 -20.254,24.339 l 0,-0.199 z"
                 style="fill:#171316;fill-opacity:1;fill-rule:nonzero;stroke:none"
                 id="path3288" /><path
                 d="m 38.336,28.355 c 0.086,0.157 0.117,0.383 0.07,0.567 -0.148,0.586 -0.672,0.824 -1.203,0.687 -0.598,-0.152 -0.937,-0.57 -0.785,-1.16 0.129,-0.496 0.477,-0.707 0.977,-0.613 l -0.067,0.242 c -0.305,-0.047 -0.57,0.051 -0.652,0.375 -0.106,0.402 0.254,0.613 0.617,0.711 0.367,0.094 0.769,0.086 0.879,-0.328 0.09,-0.34 -0.121,-0.563 -0.422,-0.676 l 0.055,-0.207 0.773,0.195 -0.055,0.2 -0.187,0.007 z M 5.117,15 5.117,14.996 3.844,13.84 3.938,13.621 5.66,13.781 5.664,13.777 4.453,13.234 C 4.402,13.211 4.348,13.238 4.312,13.309 L 4.234,13.484 4.039,13.395 4.449,12.473 4.648,12.562 4.57,12.73 c -0.031,0.075 -0.008,0.133 0.078,0.172 l 1.153,0.512 c 0.062,0.031 0.105,0 0.137,-0.062 L 6.016,13.176 6.215,13.262 5.855,14.066 4.523,13.957 4.52,13.961 5.512,14.836 5.137,15.668 4.938,15.582 5.016,15.41 C 5.039,15.348 5.035,15.297 4.973,15.266 L 3.781,14.738 C 3.723,14.711 3.684,14.727 3.641,14.812 l -0.071,0.157 -0.195,-0.09 0.371,-0.832 0.195,0.09 -0.074,0.164 c -0.023,0.054 -0.023,0.133 0.039,0.16 L 5.117,15 z m 0.61,-4.715 -0.934,1.68 0.187,0.105 0.082,-0.14 c 0.047,-0.086 0.098,-0.121 0.25,-0.039 l 0.993,0.55 c 0.105,0.063 0.125,0.11 0.05,0.243 L 6.289,12.801 6.48,12.902 7.414,11.227 6.738,10.852 6.637,11.039 c 0.324,0.231 0.445,0.34 0.258,0.68 l -0.25,0.449 -0.532,-0.297 0.075,-0.137 c 0.085,-0.148 0.203,-0.175 0.41,-0.062 L 6.629,11.691 6.73,11.504 5.883,11.031 5.777,11.219 5.84,11.254 c 0.207,0.113 0.246,0.226 0.164,0.379 L 5.926,11.77 5.332,11.438 5.617,10.93 C 5.746,10.695 5.941,10.684 6.332,10.871 L 6.438,10.684 5.727,10.285 z M 7.168,8.48 7.434,8.141 8.707,9.129 C 8.754,9.164 8.812,9.16 8.879,9.078 L 8.98,8.938 9.152,9.07 8.57,9.824 8.398,9.691 8.512,9.551 C 8.574,9.465 8.562,9.398 8.492,9.348 L 7.676,8.711 7.672,8.715 8.25,10.238 7.727,10.914 7.555,10.785 7.68,10.621 C 7.734,10.551 7.73,10.508 7.672,10.465 L 6.66,9.68 C 6.605,9.641 6.551,9.633 6.492,9.703 L 6.367,9.867 6.199,9.734 6.789,8.973 6.961,9.102 6.824,9.273 C 6.777,9.336 6.789,9.398 6.848,9.441 L 7.816,10.195 7.82,10.191 7.168,8.48 z m 5.098,-4.363 0.105,0.207 1.707,0.781 -0.359,0.188 C 13.418,5.449 13.277,5.461 13.02,4.988 L 12.828,5.086 13.203,5.805 14.598,5.082 14.492,4.875 12.781,4.09 13.098,3.93 c 0.39,-0.203 0.535,-0.207 0.824,0.3 l 0.187,-0.097 -0.398,-0.77 -1.445,0.754 z m 3.039,-0.492 0.465,0.57 0.007,-0.004 -0.011,-0.746 -0.461,0.18 z M 15.125,2.797 15.203,3 14.992,3.078 c -0.054,0.02 -0.086,0.047 -0.066,0.082 0.008,0.028 0.019,0.039 0.027,0.055 L 15.148,3.453 15.77,3.215 15.754,2.91 C 15.75,2.891 15.746,2.863 15.738,2.84 15.73,2.812 15.699,2.809 15.641,2.832 l -0.215,0.082 -0.078,-0.203 0.945,-0.359 0.078,0.199 c -0.144,0.054 -0.23,0.113 -0.23,0.258 L 16.152,4.469 15.77,4.617 14.695,3.359 C 14.605,3.25 14.496,3.27 14.355,3.324 L 14.277,3.121 15.125,2.797 z m 5.414,0.035 0.219,0.707 0.008,0 L 21.027,2.84 20.539,2.832 z M 20.68,2 l 0,0.215 -0.231,-0.004 c -0.054,0 -0.094,0.008 -0.094,0.051 0,0.027 0.004,0.043 0.012,0.062 l 0.09,0.289 0.66,0.016 0.102,-0.293 C 21.227,2.32 21.23,2.293 21.23,2.266 21.23,2.238 21.211,2.223 21.145,2.223 L 20.91,2.219 20.918,2.004 21.93,2.02 21.926,2.234 C 21.77,2.23 21.676,2.254 21.617,2.387 L 21.008,3.934 20.602,3.93 20.07,2.359 C 20.023,2.223 19.926,2.199 19.77,2.195 L 19.773,1.98 20.68,2 z m 2.144,2.012 0.364,0.097 c 0.246,0.067 0.386,0 0.433,-0.171 0.059,-0.211 0,-0.333 -0.305,-0.415 L 22.984,3.434 22.824,4.012 z M 23.602,2.438 23.543,2.645 23.34,2.59 C 23.254,2.566 23.219,2.586 23.195,2.664 l -0.156,0.563 0.168,0.043 c 0.328,0.089 0.457,0.019 0.578,-0.43 0.067,-0.231 0.192,-0.36 0.469,-0.285 0.23,0.066 0.351,0.238 0.254,0.597 L 24.48,3.238 24.301,3.188 24.32,3.102 C 24.367,2.938 24.355,2.871 24.289,2.852 24.238,2.836 24.16,2.863 24.078,3.164 24.02,3.383 23.914,3.492 23.613,3.445 l -0.004,0.008 c 0.278,0.102 0.485,0.309 0.407,0.598 -0.082,0.304 -0.321,0.414 -0.731,0.304 L 22.066,4.02 22.121,3.812 22.32,3.867 c 0.086,0.024 0.121,0.004 0.145,-0.07 l 0.34,-1.242 c 0.015,-0.075 0,-0.11 -0.09,-0.133 L 22.52,2.367 22.574,2.16 23.602,2.438 z m 2.496,2.511 C 25.906,5.016 25.695,5.039 25.477,4.957 24.938,4.762 24.754,4.23 24.953,3.68 c 0.215,-0.586 0.692,-0.84 1.223,-0.645 0.195,0.07 0.39,0.215 0.5,0.399 l 0.148,-0.102 0.199,0.07 -0.226,0.633 c -0.043,0.106 -0.024,0.145 0.094,0.188 l 0.136,0.05 -0.07,0.204 -0.988,-0.36 0.074,-0.203 0.176,0.063 c 0.07,0.027 0.16,0.015 0.191,-0.079 l 0.035,-0.105 c 0.078,-0.207 0,-0.395 -0.277,-0.496 -0.383,-0.137 -0.633,0.121 -0.785,0.539 -0.149,0.402 -0.086,0.789 0.215,0.898 0.351,0.129 0.59,-0.078 0.757,-0.316 L 26.566,4.496 26.312,5.199 26.109,5.125 26.098,4.949 z m 3.273,-0.148 -1.641,-1 -0.113,0.187 0.141,0.082 c 0.086,0.051 0.113,0.106 0.023,0.254 L 27.195,5.293 C 27.129,5.398 27.078,5.414 26.949,5.336 L 26.84,5.266 26.727,5.453 28.367,6.449 28.766,5.793 28.582,5.68 C 28.34,5.996 28.23,6.113 27.895,5.91 L 27.457,5.645 27.77,5.129 27.902,5.207 c 0.153,0.09 0.172,0.207 0.047,0.406 l -0.015,0.032 0.183,0.113 0.504,-0.832 -0.183,-0.11 -0.04,0.063 c -0.121,0.199 -0.234,0.234 -0.382,0.144 l -0.129,-0.082 0.347,-0.578 0.5,0.305 C 28.965,4.805 28.969,5 28.766,5.383 l 0.179,0.113 0.426,-0.695 z m 1.711,1.336 0.34,0.265 -0.984,1.274 c -0.04,0.047 -0.036,0.105 0.046,0.172 l 0.137,0.105 -0.129,0.168 -0.75,-0.578 0.129,-0.172 0.145,0.109 c 0.082,0.063 0.148,0.055 0.203,-0.015 l 0.633,-0.82 -0.004,-0.004 -1.52,0.578 -0.683,-0.524 0.132,-0.172 0.161,0.125 c 0.074,0.059 0.117,0.051 0.164,-0.007 L 29.883,5.629 C 29.926,5.574 29.93,5.52 29.855,5.461 L 29.695,5.34 29.828,5.168 30.59,5.758 30.457,5.93 30.285,5.797 C 30.227,5.75 30.164,5.758 30.121,5.816 l -0.754,0.973 0.004,0.004 1.711,-0.656 z M 30.77,8.289 31.996,9.605 32.578,9.062 32.434,8.906 32.336,8.996 C 32.113,9.207 31.898,9.184 31.684,8.949 l 1.015,-0.953 c 0.059,-0.051 0.098,-0.051 0.156,0.016 l 0.157,0.164 0.156,-0.149 -0.742,-0.797 -0.156,0.149 0.148,0.16 c 0.062,0.066 0.062,0.109 0.004,0.16 l -1.02,0.949 C 31.184,8.414 31.176,8.203 31.398,7.992 L 31.496,7.902 31.352,7.746 30.77,8.289 z M 34.473,9.723 34.297,9.844 34.199,9.707 C 34.145,9.625 34.078,9.617 34,9.672 l -0.996,0.699 c -0.09,0.063 -0.063,0.152 -0.008,0.227 l 0.07,0.109 -0.171,0.121 -0.594,-0.844 0.179,-0.125 0.09,0.133 c 0.067,0.094 0.133,0.094 0.196,0.051 L 33.801,9.316 C 33.859,9.273 33.855,9.219 33.789,9.121 L 33.707,9 l 0.176,-0.121 0.59,0.844 z m 1.218,2.093 -1.828,-0.101 -0.004,-0.004 1.086,-0.582 c 0.067,-0.035 0.125,-0.016 0.16,0.051 l 0.106,0.191 0.187,-0.101 -0.453,-0.848 -0.191,0.101 0.098,0.18 c 0.043,0.078 0.011,0.129 -0.047,0.16 l -1.125,0.602 c -0.071,0.039 -0.11,0.027 -0.153,-0.055 l -0.093,-0.18 -0.192,0.106 0.406,0.754 1.622,0.09 0.003,0.004 -0.914,0.492 c -0.074,0.043 -0.14,0.023 -0.187,-0.071 l -0.086,-0.156 -0.191,0.102 0.449,0.836 0.191,-0.098 -0.082,-0.152 c -0.051,-0.094 -0.027,-0.153 0.024,-0.176 l 1.418,-0.762 -0.204,-0.383 z m 0,1.926 -0.57,0.469 0,0.004 0.746,-0.012 -0.176,-0.461 z m 0.829,-0.18 -0.204,0.075 -0.082,-0.211 c -0.015,-0.051 -0.043,-0.082 -0.082,-0.067 -0.023,0.008 -0.039,0.02 -0.05,0.032 l -0.243,0.195 0.243,0.617 0.3,-0.015 c 0.024,0 0.047,-0.008 0.075,-0.016 0.027,-0.008 0.031,-0.035 0.003,-0.098 l -0.082,-0.215 0.207,-0.078 0.364,0.946 -0.203,0.078 C 36.711,14.66 36.652,14.578 36.508,14.578 l -1.66,0.012 -0.149,-0.379 1.254,-1.078 c 0.109,-0.094 0.094,-0.199 0.039,-0.34 l 0.199,-0.078 0.329,0.847 z M 2.16,20.609 2.148,20.73 c -0.011,0.129 0.012,0.2 0.102,0.208 l 1.066,0.101 c 0.45,0.043 0.543,0.438 0.508,0.816 -0.035,0.372 -0.203,0.739 -0.715,0.692 L 2.148,22.461 C 2.027,22.445 1.984,22.473 1.977,22.594 l -0.016,0.16 -0.215,-0.02 0.086,-0.922 0.215,0.02 -0.016,0.137 c -0.011,0.133 0.031,0.176 0.149,0.187 l 0.933,0.09 C 3.398,22.27 3.523,22.113 3.547,21.871 3.57,21.625 3.48,21.461 3.277,21.441 L 2.203,21.344 C 2.129,21.336 2.09,21.359 2.074,21.508 L 2.062,21.641 1.852,21.625 1.945,20.59 2.16,20.609 z m 1.528,4.325 0,0.433 -1.618,-0.008 c -0.054,0 -0.097,0.043 -0.097,0.149 l 0,0.168 -0.219,0 0.004,-0.949 0.219,0 -0.004,0.183 c 0,0.102 0.047,0.149 0.136,0.149 l 1.036,0.003 0,-0.007 -1.387,-0.852 0.004,-0.855 0.218,0 0,0.203 c 0,0.09 0.028,0.117 0.106,0.121 l 1.273,0 c 0.075,0 0.118,-0.027 0.118,-0.117 l 0.003,-0.203 0.211,0 -0.003,0.964 -0.211,0 0,-0.218 c 0,-0.078 -0.047,-0.121 -0.122,-0.121 l -1.226,-0.004 0,0.007 1.559,0.954 z M 3.766,27.078 3.551,27.094 3.539,26.926 C 3.531,26.828 3.48,26.789 3.387,26.797 l -1.215,0.09 c -0.11,0.008 -0.133,0.097 -0.125,0.195 L 2.059,27.207 1.84,27.223 1.762,26.195 1.98,26.18 1.988,26.344 C 2,26.457 2.062,26.484 2.133,26.48 L 3.395,26.387 C 3.469,26.379 3.492,26.332 3.48,26.211 l -0.007,-0.145 0.215,-0.015 0.078,1.027 z m -1.52,2.828 -0.156,-0.918 0.215,-0.035 0.027,0.176 c 0.016,0.082 0.043,0.133 0.094,0.125 0.035,-0.008 0.062,-0.024 0.109,-0.047 l 0.977,-0.57 0,-0.004 -1.106,-0.176 C 2.367,28.449 2.328,28.438 2.281,28.449 2.238,28.457 2.223,28.496 2.238,28.582 l 0.032,0.18 -0.211,0.035 -0.176,-1.016 0.215,-0.039 0.011,0.082 c 0.02,0.11 0.047,0.164 0.188,0.188 l 1.637,0.3 0.066,0.395 -1.418,0.82 c -0.133,0.075 -0.156,0.141 -0.133,0.278 l 0.012,0.066 -0.215,0.035 z M 4.727,31.766 3.938,31.977 3.883,31.77 C 4.293,31.629 4.43,31.488 4.355,31.227 L 4.207,30.668 3.555,30.84 3.594,30.992 c 0.047,0.168 0.148,0.219 0.379,0.156 L 4.039,31.133 4.098,31.34 3.156,31.594 3.102,31.383 3.137,31.375 c 0.226,-0.063 0.293,-0.16 0.25,-0.328 l -0.043,-0.149 -0.582,0.157 0.129,0.496 c 0.101,0.375 0.261,0.367 0.656,0.308 l 0.055,0.207 -0.743,0.2 L 2.363,30.41 2.57,30.355 2.605,30.48 c 0.04,0.149 0.083,0.172 0.207,0.141 L 3.906,30.328 C 4.07,30.281 4.09,30.219 4.062,30.125 L 4.02,29.965 4.23,29.91 4.727,31.766 z m 0.035,4.773 C 4.605,36.445 4.438,36.316 4.352,36.117 4.203,35.797 4.207,35.387 4.582,35.219 5.34,34.875 5.535,36.211 5.984,36.004 6.113,35.945 6.172,35.789 6.066,35.551 5.895,35.176 5.605,35.047 5.234,35.172 l -0.089,-0.199 0.718,-0.325 0.082,0.18 -0.129,0.129 c 0.196,0.098 0.372,0.258 0.457,0.457 0.168,0.371 0.18,0.762 -0.238,0.953 -0.738,0.336 -0.98,-0.98 -1.379,-0.801 -0.176,0.079 -0.191,0.207 -0.082,0.454 0.149,0.316 0.43,0.39 0.746,0.324 l 0.086,0.191 -0.668,0.301 -0.066,-0.152 0.09,-0.145 z m 2.508,0.84 -0.54,-0.875 -0.183,0.109 0.074,0.125 c 0.063,0.102 0.063,0.157 -0.004,0.196 L 5.543,37.598 C 5.48,37.633 5.414,37.637 5.355,37.539 L 5.27,37.398 5.086,37.512 5.625,38.391 5.809,38.277 5.738,38.168 C 5.691,38.09 5.668,37.996 5.766,37.941 l 1.035,-0.64 c 0.078,-0.047 0.144,-0.039 0.195,0.047 l 0.09,0.144 0.184,-0.113 z M 6.594,39.43 6.82,39.738 c 0.188,0.246 0.485,0.352 0.946,0.012 0.457,-0.348 0.441,-0.66 0.242,-0.934 L 7.789,38.531 6.594,39.43 z m 0.937,-1.602 0.699,0.93 c 0.348,0.469 0.317,0.976 -0.195,1.355 -0.512,0.383 -1.004,0.266 -1.351,-0.199 l -0.7,-0.934 0.176,-0.128 0.11,0.152 c 0.042,0.051 0.093,0.082 0.156,0.039 L 7.469,38.262 C 7.527,38.219 7.512,38.16 7.477,38.102 L 7.359,37.957 7.531,37.828 z m 1.196,2.879 -0.348,0.648 0.004,0.008 0.679,-0.301 -0.335,-0.355 z M 9.418,40.223 9.262,40.371 9.105,40.203 C 9.066,40.168 9.031,40.148 9.004,40.176 8.984,40.191 8.977,40.211 8.969,40.223 L 8.82,40.496 9.277,40.973 9.555,40.84 c 0.015,-0.004 0.043,-0.02 0.054,-0.035 0.028,-0.02 0.02,-0.051 -0.027,-0.098 l -0.16,-0.164 0.16,-0.152 0.695,0.734 -0.156,0.148 C 10.016,41.164 9.934,41.105 9.801,41.16 L 8.27,41.812 7.988,41.52 8.73,40.043 C 8.797,39.914 8.738,39.824 8.637,39.711 l 0.152,-0.149 0.629,0.661 z m 18.543,2.511 0.363,-0.23 0.867,1.359 c 0.032,0.051 0.09,0.067 0.176,0.008 l 0.149,-0.094 0.113,0.184 -0.801,0.512 -0.113,-0.184 0.148,-0.098 c 0.09,-0.054 0.102,-0.121 0.055,-0.195 l -0.559,-0.871 -0.004,0.004 0.036,1.625 -0.727,0.461 -0.117,-0.18 0.176,-0.113 c 0.074,-0.047 0.082,-0.086 0.043,-0.152 l -0.692,-1.075 c -0.035,-0.058 -0.086,-0.086 -0.16,-0.035 l -0.172,0.11 -0.117,-0.184 0.813,-0.516 0.117,0.184 -0.188,0.117 c -0.058,0.039 -0.074,0.102 -0.035,0.16 L 27.992,44.57 28,44.566 27.961,42.734 z m 3.996,-3.66 0.629,0.539 -0.141,0.164 C 32.09,39.504 31.914,39.453 31.719,39.68 l -0.309,0.359 1.039,0.895 c 0.078,0.066 0.129,0.05 0.211,-0.047 l 0.11,-0.125 0.164,0.14 -0.696,0.809 -0.164,-0.141 0.11,-0.125 c 0.078,-0.09 0.074,-0.14 0.004,-0.199 l -0.946,-0.812 c -0.074,-0.063 -0.133,-0.043 -0.183,0.023 l -0.121,0.141 -0.165,-0.141 1.184,-1.383 z m -15.105,5.567 0.414,0.117 -0.45,1.551 c -0.011,0.054 0.012,0.109 0.114,0.136 l 0.164,0.051 -0.059,0.207 -0.914,-0.265 0.063,-0.208 0.171,0.051 c 0.098,0.028 0.161,-0.008 0.18,-0.09 l 0.289,-0.996 -0.008,-0.004 -1.195,1.102 -0.824,-0.238 0.058,-0.207 0.196,0.058 c 0.09,0.024 0.125,0.004 0.14,-0.07 l 0.356,-1.227 c 0.019,-0.066 0.008,-0.121 -0.082,-0.144 l -0.195,-0.055 0.058,-0.207 0.926,0.266 -0.059,0.207 -0.211,-0.063 c -0.07,-0.019 -0.129,0.016 -0.144,0.078 l -0.344,1.184 0.008,0.004 1.348,-1.238 z m 1.675,1.136 0.192,0.715 0.004,0 0.297,-0.683 -0.493,-0.032 z m 0.188,-0.828 -0.016,0.215 -0.226,-0.016 c -0.051,0 -0.094,0.008 -0.094,0.047 -0.004,0.028 0,0.043 0.008,0.063 l 0.074,0.297 0.66,0.043 0.113,-0.282 c 0.008,-0.019 0.016,-0.046 0.02,-0.07 0,-0.031 -0.024,-0.043 -0.09,-0.051 l -0.226,-0.015 0.011,-0.215 1.012,0.07 -0.016,0.215 c -0.152,-0.012 -0.254,0.004 -0.312,0.133 l -0.688,1.515 -0.406,-0.023 -0.449,-1.594 c -0.039,-0.14 -0.141,-0.168 -0.293,-0.176 l 0.012,-0.214 0.906,0.058 z m 3.219,1.703 c -0.122,0.133 -0.325,0.243 -0.512,0.258 -0.602,0.055 -1,-0.359 -1.051,-0.902 -0.059,-0.621 0.227,-1.078 0.832,-1.133 0.508,-0.043 0.82,0.215 0.902,0.715 l -0.25,0.019 c -0.058,-0.3 -0.238,-0.519 -0.57,-0.488 -0.418,0.039 -0.496,0.445 -0.465,0.82 0.035,0.379 0.18,0.758 0.61,0.719 0.343,-0.031 0.484,-0.305 0.492,-0.625 l 0.215,-0.019 0.07,0.793 -0.203,0.023 -0.07,-0.18 z m 1.914,-2.074 0.047,0.211 -0.168,0.031 c -0.094,0.024 -0.125,0.082 -0.11,0.168 l 0.258,1.192 c 0.023,0.109 0.117,0.117 0.211,0.097 l 0.125,-0.023 0.043,0.207 -1.008,0.219 -0.047,-0.211 0.16,-0.035 c 0.114,-0.024 0.133,-0.09 0.121,-0.161 l -0.269,-1.23 c -0.016,-0.078 -0.066,-0.094 -0.184,-0.07 l -0.14,0.031 -0.047,-0.211 1.008,-0.215 z m 11.711,-7.832 0.179,-0.344 c 0.149,-0.269 0.117,-0.586 -0.386,-0.855 -0.508,-0.27 -0.79,-0.125 -0.95,0.176 l -0.168,0.316 1.325,0.707 z m -1.852,-0.176 0.547,-1.023 c 0.273,-0.516 0.746,-0.703 1.308,-0.402 0.567,0.3 0.668,0.796 0.391,1.312 l -0.547,1.023 -0.187,-0.101 0.09,-0.164 c 0.027,-0.059 0.035,-0.121 -0.032,-0.156 l -1.144,-0.614 c -0.071,-0.035 -0.117,0.004 -0.153,0.063 l -0.085,0.164 -0.188,-0.102 z m 1.898,-4.086 -0.738,1.774 0.195,0.082 0.067,-0.149 c 0.039,-0.089 0.086,-0.132 0.246,-0.062 l 1.047,0.433 c 0.113,0.051 0.137,0.098 0.078,0.235 l -0.051,0.121 0.196,0.086 0.746,-1.774 -0.711,-0.296 -0.082,0.199 c 0.347,0.191 0.476,0.285 0.328,0.644 L 36.73,34.254 36.168,34.02 36.23,33.875 c 0.067,-0.16 0.176,-0.199 0.395,-0.109 l 0.035,0.015 0.082,-0.199 -0.894,-0.375 -0.082,0.199 0.062,0.028 c 0.219,0.089 0.27,0.199 0.203,0.359 l -0.058,0.141 -0.629,-0.262 0.226,-0.535 c 0.102,-0.25 0.297,-0.282 0.707,-0.137 l 0.082,-0.199 -0.754,-0.317 z m 2.766,-5.148 0.012,-0.121 c 0.008,-0.129 -0.02,-0.195 -0.11,-0.203 l -1.07,-0.067 c -0.445,-0.027 -0.555,-0.425 -0.527,-0.804 0.019,-0.375 0.179,-0.746 0.691,-0.711 l 0.965,0.062 c 0.121,0.008 0.16,-0.019 0.172,-0.14 l 0.008,-0.161 0.215,0.016 -0.059,0.922 -0.215,-0.016 0.008,-0.136 c 0.012,-0.133 -0.031,-0.176 -0.149,-0.184 l -0.941,-0.059 c -0.281,-0.019 -0.402,0.141 -0.422,0.387 -0.015,0.246 0.078,0.402 0.281,0.418 l 1.079,0.066 c 0.074,0.008 0.113,-0.019 0.125,-0.167 l 0.004,-0.133 0.214,0.011 -0.062,1.036 -0.219,-0.016 z m 0.359,-2.582 -0.214,0.004 0,-0.043 c 0,-0.106 -0.036,-0.176 -0.11,-0.223 l -0.812,-0.558 -0.489,0.007 C 37.027,23.945 37,23.973 37.004,24.062 l 0.004,0.243 -0.215,0.004 -0.023,-1.133 0.214,-0.004 0.004,0.25 c 0.004,0.086 0.063,0.113 0.121,0.113 l 0.457,-0.012 0.817,-0.621 c 0.07,-0.05 0.097,-0.125 0.094,-0.226 l 0,-0.051 0.211,-0.004 0.019,0.922 -0.215,0.004 -0.004,-0.215 c -0.004,-0.047 -0.035,-0.07 -0.066,-0.066 -0.024,0 -0.051,0.007 -0.07,0.027 l -0.485,0.371 0.496,0.32 c 0.028,0.02 0.047,0.024 0.071,0.024 0.039,0 0.07,-0.02 0.066,-0.07 l -0.004,-0.211 0.215,-0.004 0.019,1.031 z m -0.3,-3.535 c 0.008,-0.469 -0.371,-0.602 -0.789,-0.61 -0.414,-0.007 -0.793,0.11 -0.805,0.571 -0.008,0.468 0.367,0.609 0.781,0.617 0.418,0.004 0.805,-0.121 0.813,-0.578 m 0.222,0 c -0.007,0.633 -0.461,1.043 -1.043,1.035 -0.578,-0.008 -1.011,-0.438 -1.004,-1.07 0.012,-0.629 0.465,-1.043 1.043,-1.032 0.582,0.012 1.02,0.438 1.004,1.067"
                 style="fill:#171316;fill-opacity:1;fill-rule:nonzero;stroke:none"
                 id="path3290" /><path
                 d="m 3.496,33.48 0.125,0.352 c 0.086,0.238 0.223,0.316 0.391,0.258 0.203,-0.074 0.269,-0.192 0.164,-0.488 L 4.059,33.277 3.496,33.48 z M 5.227,33.211 5.023,33.285 4.953,33.086 C 4.922,33 4.887,32.98 4.809,33.008 l -0.547,0.199 0.058,0.16 c 0.114,0.321 0.246,0.383 0.684,0.227 0.223,-0.082 0.402,-0.051 0.5,0.218 0.082,0.231 0.012,0.426 -0.34,0.551 L 5.078,34.395 5.012,34.211 5.098,34.18 C 5.262,34.125 5.309,34.078 5.281,34.012 5.266,33.965 5.199,33.914 4.91,34.02 4.695,34.094 4.547,34.074 4.406,33.797 l -0.004,0.004 c 0.071,0.285 0.024,0.574 -0.261,0.676 -0.297,0.105 -0.52,-0.024 -0.664,-0.422 L 3.051,32.863 3.254,32.793 3.32,32.98 c 0.032,0.086 0.071,0.106 0.141,0.079 l 1.215,-0.434 c 0.07,-0.027 0.09,-0.066 0.054,-0.148 l -0.066,-0.192 0.203,-0.074 0.36,1 z"
                 style="fill:#171316;fill-opacity:1;fill-rule:nonzero;stroke:none"
                 id="path3292" /><path
                 d="m 10.066,43.133 0.309,0.234 c 0.25,0.184 0.563,0.203 0.91,-0.254 0.344,-0.457 0.242,-0.758 -0.027,-0.961 l -0.285,-0.214 -0.907,1.195 z m 0.461,-1.805 0.93,0.703 c 0.465,0.356 0.574,0.848 0.191,1.36 -0.386,0.507 -0.89,0.531 -1.355,0.179 l -0.93,-0.699 0.133,-0.176 0.149,0.117 c 0.05,0.04 0.113,0.055 0.156,-0.003 L 10.59,41.77 c 0.043,-0.063 0.012,-0.114 -0.043,-0.157 L 10.398,41.5 10.527,41.328 z"
                 style="fill:#171316;fill-opacity:1;fill-rule:nonzero;stroke:none"
                 id="path3294" /><path
                 d="m 29.895,42.328 0.636,0.375 0.004,-0.004 -0.273,-0.695 -0.367,0.324 z m -0.454,-0.715 0.141,0.16 -0.172,0.153 c -0.039,0.035 -0.062,0.066 -0.035,0.101 0.02,0.016 0.035,0.028 0.047,0.035 l 0.269,0.161 0.497,-0.438 -0.118,-0.281 c -0.008,-0.016 -0.023,-0.039 -0.039,-0.059 -0.019,-0.023 -0.047,-0.019 -0.097,0.028 l -0.172,0.148 -0.145,-0.164 0.766,-0.664 0.14,0.164 c -0.113,0.102 -0.175,0.18 -0.125,0.32 l 0.582,1.555 -0.308,0.27 -1.442,-0.813 c -0.128,-0.07 -0.218,-0.019 -0.332,0.082 l -0.144,-0.164 0.687,-0.594 z"
                 style="fill:#171316;fill-opacity:1;fill-rule:nonzero;stroke:none"
                 id="path3296" /><path
                 d="M 9.742,8.195 10.016,7.922 C 10.234,7.703 10.297,7.395 9.891,6.988 9.488,6.582 9.18,6.641 8.938,6.879 L 8.684,7.133 9.742,8.195 z M 8.02,7.484 8.848,6.668 c 0.414,-0.41 0.918,-0.453 1.371,-0.004 0.449,0.453 0.402,0.957 -0.012,1.367 L 9.387,8.852 9.234,8.703 9.363,8.57 C 9.414,8.52 9.438,8.465 9.387,8.41 L 8.469,7.488 C 8.414,7.434 8.355,7.461 8.305,7.508 L 8.176,7.641 8.02,7.484 z"
                 style="fill:#171316;fill-opacity:1;fill-rule:nonzero;stroke:none"
                 id="path3298" /><path
                 d="M 11.797,6.566 C 12.203,6.332 12.121,5.938 11.914,5.574 11.707,5.215 11.406,4.953 11.012,5.18 c -0.407,0.234 -0.336,0.629 -0.125,0.992 0.207,0.359 0.515,0.621 0.91,0.394 m 0.113,0.196 c -0.547,0.316 -1.133,0.136 -1.422,-0.364 -0.289,-0.5 -0.148,-1.093 0.399,-1.41 0.547,-0.316 1.133,-0.14 1.422,0.36 0.293,0.504 0.148,1.097 -0.399,1.414"
                 style="fill:#171316;fill-opacity:1;fill-rule:nonzero;stroke:none"
                 id="path3300" /><path
                 d="m 25.941,45.746 c 0.434,-0.18 0.399,-0.582 0.235,-0.965 -0.164,-0.383 -0.422,-0.679 -0.848,-0.5 -0.433,0.184 -0.406,0.582 -0.242,0.965 0.164,0.383 0.434,0.684 0.855,0.5 m 0.09,0.211 c -0.582,0.246 -1.144,0 -1.367,-0.531 -0.226,-0.535 -0.012,-1.106 0.566,-1.352 0.582,-0.25 1.145,-0.004 1.368,0.528 0.226,0.535 0.015,1.109 -0.567,1.355"
                 style="fill:#171316;fill-opacity:1;fill-rule:nonzero;stroke:none"
                 id="path3302" /><path
                 d="m 53.957,22.207 -1.062,0 0,-4.238 c 0,-0.781 -0.141,-1.379 -0.426,-1.793 -0.281,-0.422 -0.75,-0.629 -1.407,-0.629 -0.66,0 -1.124,0.215 -1.41,0.637 -0.285,0.425 -0.425,1.019 -0.425,1.785 l 0,4.238 -1.063,0 0,-4.379 c 0,-1.039 0.254,-1.84 0.754,-2.39 0.504,-0.551 1.219,-0.829 2.144,-0.829 0.922,0 1.637,0.278 2.141,0.829 0.504,0.55 0.754,1.351 0.754,2.39 l 0,4.379 z m 1.902,-7.465 1.067,0 0.019,6.141 3.379,-6.141 1.367,0 0,7.465 -1.062,0 -0.024,-6 -3.293,6.004 -1.453,-0.004 0,-7.465 z m 7.727,0 1.062,0 0,7.465 -1.062,0 0,-7.465 z m 9.09,7.465 -1.121,-0.004 -2.391,-6.527 -2.301,6.527 -1.195,0.004 2.809,-7.465 1.335,0 2.864,7.465 z m 1.058,-7.465 4.188,0 0,0.942 -3.117,0 0,2.461 2.84,0 0,0.941 -2.84,0 0,2.18 3.117,0 0,0.941 -4.188,0 0,-7.465 z m 5.832,0 1.063,0 0,3.32 0.644,0 c 0.336,0 0.59,-0.039 0.77,-0.117 0.172,-0.082 0.332,-0.285 0.48,-0.613 l 1.153,-2.586 1.215,-0.004 -1.411,2.973 c -0.113,0.223 -0.222,0.387 -0.328,0.5 -0.097,0.109 -0.234,0.203 -0.398,0.277 0.457,0.074 0.828,0.27 1.113,0.574 0.281,0.305 0.426,0.68 0.426,1.122 0,0.812 -0.258,1.351 -0.766,1.617 -0.507,0.265 -1.218,0.402 -2.132,0.402 l -1.829,0 0,-7.465 z m 1.063,6.524 1.027,0 c 0.489,0 0.86,-0.098 1.114,-0.293 0.257,-0.196 0.386,-0.461 0.386,-0.805 0,-0.363 -0.14,-0.648 -0.429,-0.856 -0.286,-0.207 -0.68,-0.308 -1.188,-0.308 l -0.91,0 0,2.262 z m 9.066,0.8 c -0.257,0.09 -0.523,0.161 -0.8,0.204 -0.278,0.039 -0.543,0.062 -0.793,0.062 -0.696,0 -1.27,-0.18 -1.719,-0.535 -0.449,-0.356 -0.672,-0.856 -0.672,-1.5 0,-0.66 0.273,-1.192 0.832,-1.582 0.516,-0.274 1.035,-0.551 1.566,-0.84 0.536,-0.289 0.805,-0.66 0.805,-1.105 0,-0.411 -0.152,-0.711 -0.461,-0.918 -0.305,-0.204 -0.641,-0.305 -1.004,-0.305 -0.238,0 -0.508,0.039 -0.797,0.117 -0.285,0.078 -0.539,0.164 -0.75,0.258 l -0.105,-1.004 c 0.305,-0.098 0.582,-0.176 0.82,-0.23 0.242,-0.051 0.481,-0.079 0.707,-0.079 0.813,0 1.473,0.18 1.973,0.543 0.504,0.368 0.754,0.926 0.754,1.684 0,0.703 -0.153,1.172 -0.449,1.406 -0.297,0.231 -0.832,0.551 -1.602,0.961 -0.77,0.41 -1.152,0.809 -1.152,1.195 0,0.356 0.129,0.614 0.382,0.766 0.254,0.152 0.563,0.231 0.918,0.231 0.262,0 0.489,-0.024 0.676,-0.071 0.192,-0.047 0.43,-0.129 0.723,-0.242 l 0.148,0.984 z m 1.809,-7.324 1.062,0 0,7.465 -1.062,0 0,-7.465 z m 2.906,0 2.199,0 c 1.258,0 2.235,0.324 2.934,0.973 0.695,0.652 1.047,1.594 1.047,2.824 0,1.121 -0.379,2.008 -1.133,2.672 -0.758,0.664 -1.703,0.996 -2.848,0.996 l -2.199,0 0,-7.465 z m 1.067,6.524 1.25,0 c 0.796,0 1.453,-0.246 1.961,-0.743 0.507,-0.496 0.761,-1.171 0.761,-2.027 0,-0.949 -0.238,-1.652 -0.722,-2.117 -0.489,-0.465 -1.2,-0.695 -2.129,-0.695 l -1.121,0 0,5.582 z m 5.886,-6.524 1.114,0.008 0.765,1.871 3.668,0 0.758,-1.871 1.156,-0.008 -3.148,7.465 -1.125,0 -3.188,-7.465 z m 5.199,2.758 -2.976,0 1.488,3.711 1.488,-3.711 z m 3.282,-2.758 2.199,0 c 1.254,0 2.23,0.324 2.93,0.973 0.699,0.652 1.047,1.594 1.047,2.824 0,1.121 -0.375,2.008 -1.129,2.672 -0.758,0.664 -1.707,0.996 -2.848,0.996 l -2.199,0 0,-7.465 z m 1.062,6.524 1.25,0 c 0.801,0 1.453,-0.246 1.965,-0.743 0.508,-0.496 0.762,-1.171 0.762,-2.027 0,-0.949 -0.242,-1.652 -0.727,-2.117 -0.484,-0.465 -1.191,-0.695 -2.129,-0.695 l -1.121,0 0,5.582 z"
                 style="fill:#231f20;fill-opacity:1;fill-rule:nonzero;stroke:none"
                 id="path3304" /><path
                 d="m 48.145,3.387 1.062,0 0.023,6.14 3.383,-6.14 1.367,0 0,7.465 -1.066,0 -0.019,-6 -3.297,6 -1.453,0 0,-7.465 z m 6.898,0 1.117,0.008 0.762,1.871 3.668,0 0.762,-1.871 1.156,-0.008 -3.153,7.465 -1.125,0 -3.187,-7.465 z m 5.203,2.758 -2.98,0 1.492,3.71 1.488,-3.71 z m 8.582,4.511 c -0.281,0.121 -0.547,0.203 -0.801,0.25 -0.257,0.047 -0.55,0.071 -0.879,0.071 -1.152,0 -2.101,-0.352 -2.839,-1.055 -0.739,-0.703 -1.106,-1.629 -1.106,-2.774 0,-1.191 0.356,-2.14 1.074,-2.843 0.719,-0.703 1.672,-1.051 2.86,-1.051 0.308,0 0.605,0.016 0.89,0.051 0.285,0.035 0.555,0.109 0.809,0.215 L 68.773,4.57 C 68.594,4.457 68.348,4.367 68.035,4.297 67.723,4.227 67.426,4.191 67.148,4.191 c -0.789,0 -1.457,0.27 -1.996,0.813 -0.543,0.543 -0.816,1.246 -0.816,2.109 0,0.852 0.266,1.551 0.793,2.098 0.527,0.551 1.219,0.824 2.074,0.824 0.555,0 1.07,-0.137 1.539,-0.414 l 0.086,1.035 z m 1.289,-7.269 1.063,0 0,7.465 -1.063,0 0,-7.465 z m 4.336,1.652 c -0.41,0.563 -0.617,1.254 -0.617,2.074 0,0.821 0.215,1.512 0.644,2.078 0.426,0.563 1.028,0.844 1.809,0.844 0.785,0 1.387,-0.281 1.816,-0.844 0.426,-0.566 0.641,-1.257 0.641,-2.078 0,-0.812 -0.207,-1.504 -0.625,-2.07 -0.414,-0.566 -1.027,-0.852 -1.832,-0.852 -0.816,0 -1.426,0.282 -1.836,0.848 M 73.664,9.895 C 73.023,9.176 72.703,8.246 72.703,7.113 c 0,-1.16 0.317,-2.097 0.957,-2.801 0.633,-0.707 1.512,-1.058 2.629,-1.058 1.121,0 2,0.355 2.637,1.066 0.636,0.707 0.953,1.637 0.953,2.793 0,1.129 -0.32,2.055 -0.965,2.778 -0.644,0.722 -1.519,1.086 -2.625,1.086 -1.109,0 -1.984,-0.36 -2.625,-1.082 m 7.727,-6.508 1.066,0 0.02,6.14 3.382,-6.14 1.368,0 0,7.465 -1.063,0 -0.023,-6 -3.297,6 -1.453,0 0,-7.465 z m 6.902,0 1.117,0.008 0.762,1.871 3.668,0 0.758,-1.871 1.156,-0.008 -3.149,7.465 -1.128,0 -3.184,-7.465 z m 5.203,2.758 -2.984,0 1.492,3.71 1.492,-3.71 z m 3.328,-2.758 4.192,0 0,0.941 -3.129,0 0,6.524 -1.063,0 0,-7.465 z m 8.262,0 2.203,0 c 1.25,0 2.231,0.328 2.926,0.972 0.699,0.649 1.051,1.594 1.051,2.825 0,1.117 -0.379,2.011 -1.137,2.671 -0.754,0.665 -1.699,0.997 -2.84,0.997 l -2.203,0 0,-7.465 z m 1.066,6.523 1.25,0 c 0.797,0 1.453,-0.246 1.965,-0.742 0.508,-0.496 0.758,-1.172 0.758,-2.027 0,-0.946 -0.238,-1.653 -0.723,-2.118 -0.488,-0.464 -1.195,-0.695 -2.129,-0.695 l -1.121,0 0,5.582 z m 6.766,-6.523 4.18,0 0,0.941 -3.118,0 0,2.465 2.84,0 0,0.937 -2.84,0 0,2.18 3.118,0 0,0.942 -4.18,0 0,-7.465 z m 14.102,7.269 c -0.278,0.121 -0.547,0.203 -0.805,0.25 -0.254,0.047 -0.547,0.071 -0.875,0.071 -1.152,0 -2.098,-0.352 -2.84,-1.055 -0.738,-0.703 -1.105,-1.629 -1.105,-2.774 0,-1.191 0.355,-2.14 1.074,-2.843 0.719,-0.703 1.672,-1.051 2.863,-1.051 0.305,0 0.602,0.016 0.883,0.051 0.285,0.035 0.558,0.109 0.816,0.215 l -0.066,1.05 c -0.176,-0.113 -0.426,-0.203 -0.735,-0.273 -0.316,-0.07 -0.609,-0.106 -0.89,-0.106 -0.789,0 -1.457,0.27 -2,0.813 -0.539,0.543 -0.809,1.246 -0.809,2.109 0,0.852 0.262,1.551 0.789,2.098 0.528,0.551 1.219,0.824 2.075,0.824 0.558,0 1.066,-0.137 1.539,-0.414 l 0.086,1.035 z m 7.093,0.196 -1.066,0 0,-4.239 c 0,-0.781 -0.141,-1.375 -0.422,-1.793 -0.285,-0.418 -0.75,-0.629 -1.41,-0.629 -0.656,0 -1.129,0.215 -1.41,0.637 -0.282,0.426 -0.422,1.02 -0.422,1.785 l 0,4.239 -1.063,0 0,-4.379 c 0,-1.043 0.25,-1.836 0.754,-2.391 0.504,-0.551 1.215,-0.828 2.141,-0.828 0.926,0 1.64,0.277 2.144,0.828 0.504,0.555 0.754,1.348 0.754,2.391 l 0,4.379 z m 4,-7.465 1.063,0 0,3.121 2.91,4.344 -1.254,0 -2.176,-3.336 -2.218,3.332 -1.247,0.004 2.922,-4.34 0,-3.125 z m 6.407,1.652 c -0.411,0.563 -0.614,1.254 -0.614,2.074 0,0.821 0.211,1.512 0.637,2.078 0.426,0.563 1.035,0.844 1.816,0.844 0.778,0 1.387,-0.281 1.813,-0.844 0.426,-0.566 0.64,-1.257 0.64,-2.078 0,-0.812 -0.21,-1.504 -0.624,-2.07 -0.415,-0.566 -1.028,-0.852 -1.829,-0.852 -0.82,0 -1.433,0.282 -1.839,0.848 m -0.79,4.856 c -0.644,-0.719 -0.96,-1.649 -0.96,-2.782 0,-1.16 0.312,-2.097 0.953,-2.801 0.64,-0.707 1.515,-1.058 2.636,-1.058 1.114,0 1.996,0.355 2.633,1.066 0.637,0.707 0.957,1.637 0.957,2.793 0,1.129 -0.324,2.055 -0.969,2.778 -0.644,0.722 -1.519,1.086 -2.621,1.086 -1.113,0 -1.988,-0.36 -2.629,-1.082"
                 style="fill:#231f20;fill-opacity:1;fill-rule:nonzero;stroke:none"
                 id="path3306" /><path
                 d="m 62.629,44.754 -2.672,0 0,-10.578 c 0,-1.942 -0.352,-3.434 -1.059,-4.473 -0.703,-1.043 -1.875,-1.562 -3.511,-1.562 -1.641,0 -2.813,0.527 -3.52,1.589 -0.703,1.059 -1.055,2.543 -1.055,4.446 l 0,10.578 -2.671,0 0,-10.93 c 0,-2.601 0.629,-4.59 1.882,-5.972 1.258,-1.383 3.043,-2.071 5.364,-2.071 2.312,0 4.097,0.688 5.355,2.071 1.258,1.382 1.887,3.371 1.887,5.972 l 0,10.93 z m 3.508,-18.641 2.675,0 0.051,15.325 8.442,-15.325 3.425,0 0,18.641 -2.671,0 -0.055,-14.973 -8.231,14.977 -3.636,-0.004 0,-18.641 z M 97.34,44.285 c -0.695,0.305 -1.363,0.512 -2.004,0.629 -0.641,0.117 -1.371,0.176 -2.191,0.176 -2.883,0 -5.25,-0.879 -7.098,-2.637 -1.844,-1.754 -2.77,-4.07 -2.77,-6.937 0,-2.977 0.899,-5.344 2.692,-7.102 1.793,-1.754 4.176,-2.633 7.148,-2.633 0.77,0 1.508,0.043 2.219,0.133 0.711,0.09 1.391,0.27 2.027,0.539 l -0.16,2.606 c -0.441,-0.274 -1.055,-0.493 -1.84,-0.661 -0.785,-0.171 -1.523,-0.257 -2.218,-0.257 -1.977,0 -3.641,0.675 -4.997,2.031 -1.355,1.351 -2.031,3.105 -2.031,5.262 0,2.121 0.656,3.867 1.981,5.238 1.316,1.371 3.047,2.058 5.179,2.058 1.391,0 2.672,-0.347 3.852,-1.039 l 0.211,2.594 z m 16.5,0.469 -2.672,0 0,-10.578 c 0,-1.942 -0.352,-3.434 -1.059,-4.473 -0.703,-1.043 -1.871,-1.562 -3.511,-1.562 -1.641,0 -2.813,0.527 -3.516,1.589 -0.703,1.059 -1.059,2.543 -1.059,4.446 l 0,10.578 -2.668,0 0,-10.93 c 0,-2.601 0.625,-4.59 1.883,-5.972 1.254,-1.383 3.043,-2.071 5.36,-2.071 2.316,0 4.101,0.688 5.359,2.071 1.258,1.382 1.883,3.371 1.883,5.972 l 0,10.93 z m 8.75,-18.641 2.672,0 0,7.805 7.261,10.836 -3.117,-0.008 -5.445,-8.344 -5.531,8.348 -3.125,0.004 7.285,-10.836 0,-7.805 z m 13.601,4.137 c -1.019,1.406 -1.535,3.137 -1.535,5.184 0,2.05 0.535,3.777 1.606,5.187 1.062,1.406 2.578,2.109 4.535,2.109 1.957,0 3.469,-0.703 4.535,-2.109 1.066,-1.41 1.602,-3.137 1.602,-5.187 0,-2.032 -0.524,-3.754 -1.563,-5.168 -1.039,-1.418 -2.562,-2.125 -4.574,-2.125 -2.047,0 -3.582,0.703 -4.606,2.109 m -1.964,12.137 c -1.606,-1.801 -2.411,-4.117 -2.411,-6.953 0,-2.907 0.801,-5.239 2.395,-7.004 1.594,-1.766 3.789,-2.649 6.586,-2.649 2.797,0 4.988,0.887 6.586,2.66 1.594,1.774 2.39,4.106 2.39,6.993 0,2.816 -0.804,5.132 -2.418,6.941 -1.613,1.813 -3.8,2.715 -6.558,2.715 -2.777,0 -4.969,-0.899 -6.57,-2.703"
                 style="fill:#231f20;fill-opacity:1;fill-rule:nonzero;stroke:none"
                 id="path3308" /></g></g></g></g></g></g></svg>